/* XPM */
static char *b57e808471c64c73874f0aaf538c4e7cBIIm9FfusohatKoe[] = {
/* columns rows colors chars-per-pixel */
"128 128 51 1 ",
"  c #5F5B56",
". c #65625E",
"X c #666360",
"o c #696662",
"O c #6D6A66",
"+ c #6F6C68",
"@ c #716E6A",
"# c #74726E",
"$ c #78746F",
"% c #777470",
"& c #797672",
"* c #7C7975",
"= c #7F7C78",
"- c #807C77",
"; c #817E7A",
": c #84817D",
"> c #86837F",
", c #86847F",
"< c #88847F",
"1 c #848380",
"2 c #878580",
"3 c #868785",
"4 c #888581",
"5 c #888784",
"6 c #8A8883",
"7 c #8B8883",
"8 c #8B8985",
"9 c #8D8B86",
"0 c #8F8C87",
"q c #8F8D88",
"w c #908D87",
"e c #908D89",
"r c #92908B",
"t c #93918C",
"y c #94918C",
"u c #95938E",
"i c #96948F",
"p c #98958F",
"a c #969490",
"s c #979590",
"d c #9A9793",
"f c #9A9893",
"g c #9B9994",
"h c #9D9A95",
"j c #9F9C97",
"k c #9E9C98",
"l c #A09D98",
"z c #A19E99",
"x c #A2A09B",
"c c #A5A39D",
"v c #AAA8A3",
/* pixels */
"deetsiissssie88898899eessuuttttqteeqeq98>>>>299dttdffddutruteq9qqqqtsusus0>489qiu894sq98*%%##*=***&;=;;=4e82&%#@#%&***>*&%*###q2",
"9=&*&=>;>;>>>;#*=;>qfzkseqeeq4>*==;=&&==;;4;=&&&*&****##%#&#&&*;>&#@+####@@##&%%#%**e9****&*%#%*&*&&%%*&**%%%##%#&%&#&*==>*&*%%4",
"0;4;***;>>>>>;>>>>>>>>>>;>2>>>>>;=#=;;==*;>=*&%**&#**#%##%&%&####@########%#%#&&&%**e9*=***;*##&%*&&&%#%&&&&%#%#%&&==******=&%&6",
"t>;>2;2>=;;>>>;;;;*;>>>>2>,>>>>>>>;;>>>;*=4*%*&*&*%&%&&#%*#####@############*%#####$44***;***%;&&&&**%%&*&&%%**%&&&***%%&&*****9",
"r>>>>26,;;=;;>;;;;>>>>>>>>>>>>>>>;>>>*===*8**&&%#**###&&###%@#&##@####&%&%#&&&###%&&28****&*=&%**=%&*&&&&&%###&#######&&&%&****9",
"9;>>>;>442>>;;;;;;*>2>;;>>>;;>>>;*;;;;;>>=4&%&&%%#*&%#&&##%#######=&&%#&&#*###%#%#%&48;=**&%#%&%&**%%%&&*&*%%#@@O######%##&&&=*t",
"h>>>>,>>>>>>>;>>>>;*>>>>>;;;>>>>>>>=>;;2>*q%&**&@##*&@#*%%%#&###%*&&%@#&%%####&####%48*&%#%******%***&&*&*&&##oOO.#&&%#%##%%&&*q",
"r2>2>>4>>>22>;>>>>242>>>>;=>>>22>>;>>>;;>;u&%**%%#%*####&@%*&&##&%%#@#@%&%#%##%###%&46****=*=>*&****&%*&&%#%###+#+##%&%&#&%%&&&9",
"q>>>42464242,>;>>28,42>>;=>>>>8584>42>>>2>s*&*;&**&***&**%##&#&&##%##@@######%&%#&&&89*&&*****=*****#&&&&&####%#@#%@+%&%##%&%&&9",
"9;>*>>464;444>>;>22424>>>;>2>22442>>>>=>>=s%&&%&&&*&*&%**&%%#&&##%###@##@#%#*&&&%%%&4u**%********;**&%&%&###%%&###*&#@%&###&&&&4",
"9>>>;>>422,,2>;>>,,4424>>22>>>22>>>3;;;>;=u&*=&&&&&&**#&&=*%$#########@####&&&&&%%$#4u%*=%%&*****=*&&&&&*%#%####O@%#######%&&*&,",
"q>22>>4>2>244>2>4>4942242,;=>224844>>>>>>;u&&&*&*&&%&=%#&&%$#@####%#####@%#&&%&&%%%#,4#%##%&&&&&&&&**&***&#####%#@###%%#%&#&&&&*",
"q>>>>>42>4444>>>>;268422>>=>>42444>>>4>2>>i&*&*&&&##%$&&%&&*#@OOo@##@@@@##&&&&&&%%&#>4&&%&&*&*&&*&&&&&***&%%&#####%%%&%%=;&&%&&%",
"9>>>>,>>>>6444>;*=;444>2>>>;444>42>>>>>1;;u%&&&&&&##@#&&&&&%##@ooOO@@@@##&&*&#&&&%&%>6&@%*%#&*&*&&&&*****&##@##+##%%##%#%&&&&&&&",
"9>>>>,944;*4442=>;>4444>>224>2242422>>>>=;u&&&&%#&####&&&%*###@@###@######&&%&&&%#&%>4*&&*%#&**&%%&******&%##&##%########%&&&&&&",
"9>>4>>4,>>444>>;;>;>>2>2444>2644228>>>>>>;u&%%%#%###&&&&&%&%##@###%#%&&&%&&&&&**%&&%>4&*%#&%**%##%&******&%&####@###&###&&&*&&&&",
"9;>>>>>;>,,24>;*>*#>>442,24246824684424,>>u&%&#%####%&&*&*%####&@######%&&&%%***&&%%>2&**&&&*&##&#%&*****#####*$&#######%&&&&&&%",
"9>>>>>>>;;42442>>>>;>>2524>24,>8999q98842,d%##%$%%#%#&&&&%&#%%##%%#%#%%&&***&%#%&%##;>%;*&#**&&%%%&****%#&&&%%%O########%&&&&&&&",
"e;>4>>>;;;44>4>>;;>>2>>>2>2>2289e999866442e&&**@*#%&&***&@%%#&%###%&*&&&&%&&*&&&&%*%*>&&;**==*%*&=%%&o###&*&####%#%&##&%%%%&&&&&",
"g>>>;;=;;>;>>>>>;;>>>24222,>*290e09966444>d%&%&&&%$&*&**&%#&%%%&##%&&&&$*&&&&&%&#%%&*2=&*;;=;=**&&*&%%%&&#O+%@###%#%%%%#####%%**",
"cqee0q9>>;;>>;;;>>;=&&*;>>;8>>469998444448z**&&%&&&&&&*****&%%###%*244=484464;>e924228842iusfutfutuutteq4;;>,48eeruee9e>e94448qq",
"8998ue99888tdiuuuue98889qteqetsdzxddddsisdvheeit098edddduuu096>>>>8qeeeeureee0rte64,82>;;;>44>;;>=;*;;=;=>2*%&@#@####@@#%&&&&&99",
"&**&&*&**=*;;;*&**;1299esurerhhzzzczjjzzzzzhjjhue996990ee9446049;>>,4>>>>;;;>>>>;;;;*;=;>;>>>>;;>;,;*#**;;>*%@#+#@%####&&&&*&&&*",
"**&&&**%==**;;>***&*>e9dfpuiuuppddddddipuduuuuuuduureeeueuee999q>>;><<,>>;>>;;;;;;;;==;;>;>>>>;>*$9;*;=;*;4*%##@@#%&###&&=&***&*",
"****&=**=****==****&=u9ddhur9udpdddddpdppduupppiiiueererueeue09u>4>>>94>;;>;>;;;>;;;*;;>;>;;;;;;;**;;;*;**44%##@+@%&&%&&**&*=**&",
"****************&****s9uiduuuuddfgddddddueeupdpueeerueeeeerree9u;>>69644>>;;>>;;>>>;=&>;4;>>>;$*;&&;***-**0>##@##++&*%&&&&******",
"**=*=*=******&***;***u9rreeeuepduipdpeuuueuuuuguuur9eutuueuuee9u>>,9<9444>;>>>;>>>>;&;>>>;49;>;;>&&=**&**;e2##%%%##&##%&&&&*&&**",
"************&***&#&%&u9eeeewee6uue6e9euw9euuuupuu9eeereudurriu9i>>464444>44>>;;>;>>;;=>>>>;;4;;-*;**;*****e2%%O&%#%&%&&%%&&=**&&",
"****=******&&***&=*;*ueeeee9w0eewuuuuuure4uuptte9ueeueeruueuuued>44444444>94;>;;>;>;;=;;>>**;;;;;**@*;*;-*4,%&%##%%&%%#@%*&**&%&",
"**==**=***&#&&%***&**u9ewe09eereuuuureuuuuuuudpuueeeeuu9euruuieg4444444>>>>>46>*>;;;;;;>;>;;-;>;;;*;;;;-**4>&%*&%%&%#&%&%&&&&&&#",
"**@*******&*&&*%*&**&t600eeruruuiueuuuteuuuuuuuuurueu9uuuuuudpef9444444>;>>>>;4>*;;>>;;;>>;>;>>>;;;*=;***&>>&%&&&&%&%%&&&&&*&&*&",
"=&*****=**%&*****&*=*r490eeuuuu0uurteeueretuuuuuuueeeeuudpuuuuwd444444>>>;>>>>6>>;>;;>>>;*;>;&-**;;*-***&&49%%%**&&%%#&%&&&**&**",
"********=*==;****#***u4099rtuduuuueu9eueueeuuuuuiuuu0weuidpufued,444>*>>>;>;>>>,4>;;;;;>>>>>=;;;;****&*#&&4q%&&*&=*%%&&&*&&&=;**",
"*********==*=********u4990ruuuueee90ersuseeuuuusuuueee9ruddupged>>;;>>>;;&;;;><>>;*;;;>;;;;;;;;;--**>;-*&&4,&&&****&*&%%&&**=***",
"**=&&**===****=****;*i690werueeueeww0eieiuuuuuuuuuueeuu9eudupdud>>;>>>>>;;;;>>>4>;>;;;;>>;;;;;*;;;*;;;;;;*>>%%&&****&&&%**&;==;*",
"***&**;******>*******i9ueeeue9eeeuee09uueeeutuuuuueeeeueeuiufduh44>>*>>>>>>>>>4w>>;;;>;>>>-****;;;*;;;;**&;>@##&&&****%%&&**=>,,",
"*&******&=*=>==******u4eute999990weweeuhruuuuuuuere990eweuuuddih44>,>>>>>>>;>>49>>>>>>>>>;*$>*;;>;&;;;**&&;>@##%#%*&&******==;;=",
"************=>;;*=***u909eee9699eeeeuuerurreueeuer0e90w0eiipdduf499,4=;>>;>>>>>4>>>>;;>;;>***#;;*;;-;-****>2#####%&*&&&&***=;***",
"*=******=****=;*****&e9uuuee9e9eeeeeeee9uereeuueewe6649ueiuuuuer>>4>>>;>;;>>4>44>>>>>>;;;=*&****>;;;;-*&#*49%#@####&&*&&***;;**>",
">>2=*******&*=******#84rre09e9euuewwee9w9weeerreeere99ew0iippu4e=994>>;>>>>>>4e>>>>>;;>;=*;*&*=;*;>;;***&*4>#%#%####&**&***=**;,",
",;;>***=***&&*****=%%4>69e99ee99ue9e999ruereeeee0eer99e90updd6>4=;44>>>=>>44>44,>>>>>>>4>>;;;*;;-*;-******4;##+##%##&&&**&*=**=4",
"&%&****==*=*******%%*4>eeeeueewe0eeereeeuerure0eeewe9ee0eeuw4498>;=>,>>>>2>4,>>>>>;*&*9uee990484>e44422>69u8>>>>224>>>89,4&&&&&*",
"449eifsdiuuuuiutq4244euddzipddd6fe9e09096>>,qrudfdidddddfhdiggsgddfhhgdffgzhhddidue>>>,kdiureduur>644999999er9ue98899990qe9et044",
">;>>>>>>>;-**=*&&&*#=;90eeuueedie0999998>>,>2490id0e9q0994*;49eusq4>2;>>>>>>>****&*;>8>0re964809444*,4996446e462>4442>>>&4444942",
"8>>;;;#>>;;-***;;;-;-*>;;>44>>>;;>;;==;494u44>**;>;**;>***;;*;;;;;>;;;;;>;;=*$*&&*&*>q2eq9964944944,4444>444444,4q49444466699444",
"e>>>;>;>>;;;--*;-;;***>;>44>>>,>;>>>>;>;90d44;;;;;;;****=&;;**;;>;>;;;>;>>;**&&&###&=049q96699444>444499494>,44446,>642444<9r944",
"4;;>>>;;>;;;>;*;*;***;*>>>>>644>>>>>>;>>>8h2;>;=*;;*;***&&**;;==;;>;>>>2*>*&*&*&#&;*;rrre099r;e96999,44449444964486>>46994>99e94",
"4;>>>;;;;;;;;;;**;;*;-;;>>8>>>,>>,>>;;>>>>h>>>>*;;;*#**=*****=;;;;>>>>;;;=*;*=******=d0eurer099qe09944464e6469999944*,>>04444494",
"4;;;;;;;;;;;;-;*-***;;;>>>48>>>>;>>;;>44>>g;>>>;&&***********==;;;>>>>=*,>***&&&=**&*s9re0er9;69699499609999999644>>>2>>94694944",
"4-;;;;-*-**;-@&*;;;;;;;>>;44>;>>>>>;>>;;>>d;;*=*;************=*;;;;;;#*;>******&&&;**u9ee09uu999699499e4uee9e9694444,844940849>9",
"4*;;;-****;*;*-;>;;;-;;;>;>>>>>>>>>;;>>>4>e;*;&******;****;**;*;;;;=&*&&**&&&&$&&**>*u9e0r09u499946e999e9999ee999844988>9>44464e",
"6*;;;>&**&*****;-;>;---;;;;>;>4>4>>>;>>49>e;*=;;&*=***;*****&****&&&&&&**&&*&&&&*&*;>e9qqee9e999996999000e9999ee999946ee0949944e",
"4;;;;;;*;;****;*;;;*&*=;;>>;>>>>>244>>>>64t;*&*;==;;;;=***=*=*@*&&&&%#%&***&&&&*****=e9eeeeer09e9ee909e909909e9wee999949reeeee9e",
"8;>;>>;;**;;>**;*>;****;;>>>>>>*>>>>4,<4e6t;;;;**;;;;>;;;*==>;***&=*&#%&*@&&&&&****==eeeeeeee0qe99994944469eeeeeee0099eue0eeeweu",
"9;*>;;>;*;#-;-***-**;;;;;>>>>>*>>>4>499644r;;=;*=*;>>;>;;;;*=***&*****&;*&&*=&*;****=e0uiee09eee99ee99644499eueeeeeeeeeeeeee9e9u",
"9>>>>>>;>;;;;--*-;***$;;>>>>>>>>>>>4496694u>>;=****>>>4>>>;;******===*&**>=**&*;**=*6uetupue009qe9909944499euueeeeeereeeeee009eu",
"0;>44<>4<>;;;**>>;$;>;;>>>>>>>>>>,>4644464u;>>;==>;;;*>>44>>;=*****;**&&&=;@;**>**>-6seeeeuue09eeee9949eeetee0eeeeeeeeeeeee9rueu",
"9;><>>>>>-;>;;;>;**;;;;>>4>>>>>>>>>>444464u>>4>==;;;;**>>>>,>>***=*;**&*&*****-=;*;>rjurree9eeeee099990eeereeeeeeeeeeeeeererdfr9",
"6=;>4<>>>;;;>;*;*;>;;;>>>>>>>>>>4>>>444444u>>;>;;*;;>;;;;;;>44>;;;=****&*;=**&*;-;>>ejrrurer6pdeueqe0eueeteeee0eeewe9eeeweeiuue9",
"4*;;>>;-;*;;>><>;>>>>>44>>;>>>6>>>><464444u;;*;>;;;;>>4;2>;;;;=;;>=*******=*;**#;--=0deeeeeeeeiueeeeee0w0e09e9eeweeeeeeeeeeu9ww9",
"4&;;;;;;;;;>;;;>;;>>>>4,>4444,>>>>4<<9>44,r;;;;>>;>;;,>4,>>;;;2>;;;**&****$&***=--;-0je099ereeuueeeeeee00ee0e0eeeeeeeeeeew9reru6",
",&*;*;*;;4>;;>;;*>>>444><,4444>><4444444429*;;;;;;;*;>>>>>>4>>;;;=**&********=*=-;-;0r9449eeewuuueeeeewe0ew900eeeeeeeeeeeeueee94",
"6;**=;>>;;;>>>;>>>444<<>>>,>>>,4>4499444;;4=;;=*;;=;;;=*=;>;;;;**>*&&**&$&&*****;-->49>0u09eeeuuree9rewee090w0eeeuueeree99690646",
"ie896899ud9weruuue9>;*&*=>>>4e6eeeee,>>>>4q890eeeruuurettudfere492>>24>444494966wee099,>8idfdd9udddddddddd96dddifffghzhireruruii",
"jiturreeuduuphhhzd042,>22484888qqrreeeerq99qe899eee9989992qeq94e9>;>>24,>,2>>>>>,e0>;442>,89er42>>>>;;;>449>9hfddddhdddpdddpudpd",
"rue0ee9094499eeere94;>=**&%%%%&*=>;;;>>1882*&****=****&***&*&%#;>=*#@@+O@@@@O@OO@#&#@##$#@#$###@@OO@@@@O@#944eweeeeweewew999uuuu",
"uuueeee9e9>9909eeeee92;*%&%#&%&**====***&&&;=*********%%**%&&&%>8=#@@@@@O@@#@&@#$#@####&$%#&##@@@@###%@@@%q4eeeeeeeeew9eww9w9uuu",
"uuuuuuue99999eee9r9948*##&**&%**==*;***&&****==******&&#&*%&&%&>9#+oO@@@@####%&$$#####&&&###&##@@@@&##@@O#u99ueeweewwwweee9eeeud",
"fueeeewee0099ieeee9w24##%%**=;=&***==&&%*******==*=**#%%%&&#%**,q@@@@@#+#&###$#$#&@####&&$#*&##@@@@@@@##@@u9q9e0we9ww96eeeuuiudh",
"puuereeeereeeupee09064%%&*%***&*=*#%%%&******=*=;=**&#####*%#%%4>#&####@#+##@#%&##@#@##&######@@@##@#@@@#@u6eueweeeeeeeeeeeueeuu",
"durereureeeeuuuiwew944****##&%***&%%%%*==****====**&*%%+#######84@o##&##@####%*@###@##@$#######@@#@#o+#@O#u99eeweeerueeeeeeeeeud",
"uuuree<reeeeupue09e094%***=*%***&%##%&******====;***%%%#####%&#4>###&&&###@#&##@####@####@@###@@@OOO@+OO@#u49eeeweeueueeeeeueeuu",
"iuuueeurerereeeeeee09q&&***&&*&&%%#&*&*****==**===*&%%#%%##%#&%8>#@###$$#%@@&##&#####@O@#@@##@@+@@@@OoOO##i6weeeeeeeeeeereeurruu",
"iuuueeueeeueeee0e0ee9u**&&#&****%&#&*&&*******====*&%##%&###&##24#@@@####@@#*##&###&@@@@@@@@#@OOO@@OO+@@#@u9eeureeeuuteereeuuuuu",
"uuiuueeue9ee0u0eeee99d**&##***%&=*%&&**;;;=***=***&&%##%#######4>@OO@%#@&@@@#&########@@@@$@##O@OOO&#o@@@#i0fdueeueuutttueruuuuu",
"uuuueererree009eeeeeed*&%%%&*&&&%#%**===****&%&&*&&&##@@#@#####>9O+@@####@###&&%&#####@@@@@@#@+@#+@@#@@@@#duiuueeuuuuuduuruuuuuu",
"utuurrertre90eeerrerqd*#%%%&%*;*==&%%*&*******&&*&&%%#@@#######>9O+@@###@@@@#$#&&%###@#@@@@#+#+O@#+@#+O@##deuuuuueuduuutuuttuuuu",
"utuuerurre9999eree9r0s%%#%%&**&**&&%***&&**&&&&&**%############>4@@@####@@@@@$$&######@##@#&#@+#@#&#&#@O+#d>uuureetuuuuuuuuuuuuu",
"urtrerre09ee09eeueeequ&%%%%&&*%**&***&&&&&*&%&*&%%%%###@#####*%>9###@@@@@#@#@#&#$&#O#@##########@%&O#&#O@#deuuupipdueeeuuuuuuuuu",
"ut9e4re9eeeq999eeeereu&&&&&%**&*&&&&%&&&=**%&&&%&%&###%#+@##%%&2w#&##@@@@@##@@$##%###%@@@######%&#%#&#@#&#deuuruuueieeueeueuuuui",
"iuueee9q9u0999e09uurei*=*&***&&%%&#%%&&&&*#&&#&&%%&%##@#####%%#>>#&&#@###+@######&&######@###O#@O@@o###@#%feuureurereeeeuiuuuuii",
"iuueee00te0q9999euwe6s**&&**#####%%%#&&*&&&%%&=*%%%####%%%#%%##2>@@@@@@@@@@###%&#$####@@@@######@@@#*&#%#*s0uurrureeuueeuuuuuuip",
"fiuueeweere999999;ee6u&****&&%%&%%%#%&&*&*&&&&&%&#####@####*%%%4,++OO++@@#@@@##########&&###@##@##@#&%&#&&q>uuuuuurrurruuuuuuiip",
"puuuree0eueee999999q>q****&&%%&**&*&%&%#%&&%&%%&%%###@####**&&#2>@OO.@@@OO@##@@@#&########@@#@#########*#&9,2uutweereeeruuuuuiiu",
";>490ret9ere0ee999>>2r=**%&*&&****&&&&&*%%*&*&&&%%&%%%*%%%&##%%2>#@.oO@@@@#@@###%%####&**&&#$%&&&#&&#%&#&;e8>8966999999990wee9>>",
"q99tuddddsgdiiite0qqth49999*>;449q9999q8us829984qq44>2444689994092>;*&eq94eeeetetuddsuuiuususssst88qtshgsueudssiuudddgdghhhhhdte",
"uq99999669904444>>249uhddzgfttttrtuhjidddugzq99864>>;>22>,2984,>>;@+O.  o+O@@@##%&*=9t4422,49668uuussusudfdsq4>2>,9eqqtrrutruieq",
"ere900w9990e9909444999099e0066999669e99ee9ue=***#=&&**&=&&*;=&&&#%#*&&@O@#&##&&%&&**rdee0999990tterttrtre99e44,>96909qqeeeeerrue",
"dree0ee90weew06446999699999ee999999qt99949fe==***&#&&&***&&**&*&&**=&%@###%&%#%&&&**qfeeqeeqeeuuuttrrure9e999994469eeeeeeeeerrre",
"u0e0ee000wrwe906699994449e99uew099q0e99999hu;***&%&&&&&&*&&#%&%&;*&&#o%O#%%&&&&%&&*=qdee00qeuiuuurrrrrr998994994>490eeerurueeuti",
"i990weweeeew009>699969964990eree99euue999qhe;****&&=&&&**&&%%&&&***&*%**&%&&*%#%****efeeeqteeututree9q9996,48944>69qeeertduuuuud",
"i9qreeeeewwwq90e9*409966999e90eueeeeeee0rehe;=***&***&&&*%###*****&&%&*&##&&&******=efeetueeturrere900969q9990444699eeerrptuuuui",
"f909wee6rww0r9099646996694900eeeueeeeee009he;==**&&&&&&&*%#%%&*=*&*&#&%##%%&&&**==*=qdeuueeereerr0969899qe0qeee69990eeq00r9tuuud",
"f9990eeeewwwer099969664>,6999eeeureeeewe94de===**&&&*&&&&##&#&**=**&&*&&%&&&&&&*#**;0deeueeeteqe998898ee90eruee09q9qeee0eueruurh",
"de9660we60wwuw00q6644444999469eueruwe99999ue;=***&&%&&&*###&&&&&*&*&&&&&&&*&*&*****&9d99eeee99968999889000iudruee9qeeeqeeeeruu4h",
"z9r6900w0w09ee09w049,844469699099eew9999eed9=****&&#&&%%##&&%&%&&>*&=#&%&***&&*%*&&*eu969466898849998899eeuuuuureq0eeeeee0erweef",
"f94e09ewerw0ww9ee0e94699646499e09e490e9964u9*****&**&&&##%&**&%&;**&*&&o&***&#&**&*&tr44444489894>96q98990wiuudieeeeeee0q>9999ef",
"g99649ww99er9wuerr096448696990e99699946464e4&**=****&#%#%&*&&&&&&&*&***&&*;>**%#*=&*qe,48992>44844e8868469uiuupureeeeq00999999ed",
"d99e06e09ee90re6wee64949699999e99994644446ue*&*=****###%#&*&%&%&*&&&***#&*;***&#****8u890449>2488844886999rurpe6eeeeq9009498999d",
"fe9000eeu6eueww6eew9e46966899999999944>>44re&*&*****%#&%#&*&%&&&&&*=&**&&***&=*****=*e9289>99q94,424>44899eutee99964444499q8999h",
"d9e999ire946eweeee996469,4446e9909944>>>>4e4****;*&*%*&%&&&&&&$&&&&;=***&********=*=9ir09949998888484=>699rir909964644484686e9ed",
"dee96err0999000ee986>9q094969469q09964>284r6***=***=%&&&&&#&%&%*&&&*****&&*&&***;=*=q0q99989989999e942#,90erw999844444224928990d",
"iw960e<0rr6;90909966940996,69498996,684>26u4&*&*****&&&###&#%&%&&&*&*&&&&&%#****;=*;qqqqqeqe94889e02,49469eee096844422444,48984u",
"r99990ree699909999909qee9e99;4989999994,4qe,#&&*****&&&##*&%%%%&&&&&&%&&##%&&*;=;**=00ee998884460096444289qee9944>>>;;>>469e924u",
"0494>8>99w09999999909eeeee9e909,999q9464,6f6&&%&**=;&@%#%##%%*&#&*%&&&#%&&&&&***;=*=929644422928eq964289990r08644;>4294684469>4t",
"q94688869999999q9899q9rtttre009q09664,492*;**%%&&#**&&%*###%%%*%#*&&&%&#&**&**&*==**d2249464849848898q942;*=>,42>>>444444,44>=*2",
"ufduuuu9r9698999944>**;>699t99849889984;*;>;#%**&&&$*&&&&*#*%####*&===&&&&*&**8qe994heeeq98ettutsffsshdt08428qeuq00q9tq84q899440",
">8&444tuq99edsddfdt0eq8ruhhjhddd<ddiise96489qqqr0eusuerqutte042>>4qsduturu444449qs,,>>;>=++OO+@@#%%#%%%=;;8*%#@OOoO@@##@@@#*>;==",
"######%%%*&****&*&=2>e8qsddiuteeeeeq0898>289,>>>2>>424;>>44242>4;=&##@#@@O@####@#########O+O###%##&#####*=t>%#%@#++##%#@%%%&##+#",
"#@@&%##&&*;****&**%;>ueuudsuuruurrerre0989>eqe9e0,94t609889999ee=*@#############%###%#%##@@+#@##%##%#%###=g=%##%#O#@##@####&&&%%",
"&%#%%%%%&***********;terrreeuiriuudueqre0e0eurqet99qet999996999i=@########%%###&#**######@O#%##%*########%s*&&%@#@+########%##%&",
"%%#*&%&&#%*;==;=**&&&s0uuusudiuuuueeuq9qeq9eeue99e4q489ee944894d%########@#@@#O###@##@#%++###@#%*%&%**&%%%s**#&#@+@#############",
"##%#%%%*=**=*&*;**#%%uquuuuuuiuduuueruuut9q0e9999eq8eue6w0929>4f####%##@##+@@@####%@##@##@#@#%%&&#%&*==*%&i**###@@##&#######@###",
"#%###%&**=*==*=**&%#%seruuiuiuu0ureeuuiutueeq98q099960duuu04484k%%&################@###*#%#%&&*&%&*&&&&*%#8&%####@######@##%#&@#",
"#%*####**=*****+##%%%u0eruuuiuuesrueeteuuuuuettqeeqer9ruuur6948e##*#%#%%#######&#o%#%@##%@#%#%&&&*&&&&*&%#4&###@###%############",
"&*&&&&##======*&##*%%u0euuiuuureiuddtretutudeeqee99eu9erreeq849t###%####%###%=#%#&#%#%#&##@%##&&*&*****=%#4%##+#######@@@###&%##",
"%%#&&%*&&*=>=*&%#%&&#s9qeuiuuereuuhitsrtrrtreqe0096rururue9e924i##%%#########%&&##*@O*#%%#@#%%&*********&#2%##@######@#%##%%&&&%",
"&#@&##%&=*****&%%&&&*d8etiuuuueruiuuisrrtruree99906ruruuure9964r####%#%###&@###%%&##&&#*&##*@%&*******&$&#2#@#@#%###@#######*&%#",
"&###%%&&=*****&%%#&**r9eduudieuusuuueuretrrtt00ee9eetrrueeee648t@##O#%&%#%%##%&#*&&#%&***%&*%&*********&##2&#@#%#%@#@#@####&#&*%",
"%%#%##%&*&&***%%%%&=&reutuisuuuuuieeqqeseerrteeee0erturrure094>q@####&%*%####*#*=*&&%**;*==&%%*&*&***=&@#*4#######%@@#@#@##@@@#+",
"%&&=&%&&**&%=*&&*****ruudgdduturureee0qeeeerteeqee9rurreure09r4e#######%%%#+@#&&=***&;*&&&&*&&&******=&#%>9&###%&*####@#%#@#####",
"&**&*&*=*&#&&&%&&*===uuhdddiuuuree0q0eeeeqeert000rererrere99>66u@@#####@##&##%#%+&&*****&&%&&&&&&&=***&##>4%#########&&$@@#@#@##",
"##%@&*&%%&%&##&***=;=iudddduuieeereeqeeqeeeeereeeeeeeeee94996q4u@####@#@###*##%%#%%&&***&&&&&&&&&*&*&&###44%########&#%#@@@#####",
"##%%*#%%%%%%#%*&**;*=huddddidisteeeeeeqrr0re09ee90eee9u9999ee64u##@@@@@####@@#%%##%%&%%&&&&#&&&#%&*&*&&&#;,#&####&#####@@@+@###@",
"&#%#&&%&&&%#&&$*****=desddfiuiqteee9teteet4eq09ee90tee098649994e@+@@@#@##@#%#####%###&%%######&%%&#&&;&&**>@####@#&&%#@@##O+OOo@",
"+%*&%#%#%##&&&****#**t4ddhiiiue0reesuerereeq999qe00u4t996969qe;4+#+@##&&@@##%%#####%##%###@@####%&&&&&%%#%>%+#@+@%&#&##@@+OoOOoO",
"+O##%##%%%&&**&**&%&=e>4ddiu9eeee68999q449teq49e00euru998489e>*;#@&%*&&%#@#*##%%@#####&*%########&%#%###&*;&%+#@##%%####&&@@@Xo#",
"*#&**&%*&&*=&**%*&&&>e624ee0qeeqqqqeqe888;=>490eeteeee999999>=>8%#@#%@##&*&&&=**2q844848444>4488884sfgdduut949qeetdddddd>4>2494>"
};
