/* XPM */
static char *_34074f1e2fd4f6ab0951924e338c8487XsM2erLT9pf37Wq[] = {
/* columns rows colors chars-per-pixel */
"64 64 235 2 ",
"   c #363E6C",
".  c #353C79",
"X  c #3E515F",
"o  c #35426E",
"O  c #3B4A6E",
"+  c #3A4869",
"@  c #354373",
"#  c #3B4473",
"$  c #354974",
"%  c #3B4B74",
"&  c #36427C",
"*  c #3A447B",
"=  c #3C4B7B",
"-  c #3D527C",
";  c #3A5578",
":  c #31496F",
">  c #495C5D",
",  c #5B764A",
"<  c #4F6358",
"1  c #546A54",
"2  c #5D7456",
"3  c #4F694E",
"4  c #607951",
"5  c #687B4B",
"6  c #485669",
"7  c #404B74",
"8  c #424D7D",
"9  c #484B7B",
"0  c #4B5375",
"q  c #44567D",
"w  c #4B547B",
"e  c #45597C",
"r  c #485878",
"t  c #545873",
"y  c #424F6F",
"u  c #5B6B68",
"i  c #53626C",
"p  c #696475",
"a  c #AC753F",
"s  c #B77D48",
"d  c #B2784A",
"f  c #867B7F",
"g  c #789B1B",
"h  c #7EA509",
"j  c #7DAA0A",
"k  c #7DA405",
"l  c #7DB308",
"z  c #7B9D2C",
"x  c #76992A",
"c  c #769539",
"v  c #6A8D37",
"b  c #7BA027",
"n  c #6DA02A",
"m  c #688543",
"M  c #6C8449",
"N  c #84AC0D",
"B  c #8AAE0C",
"V  c #84AD06",
"C  c #92AE0E",
"Z  c #85B205",
"A  c #8AB902",
"S  c #85B30C",
"D  c #8AB30D",
"F  c #8EB90D",
"G  c #88B606",
"H  c #91B30C",
"J  c #91BB0C",
"K  c #86AE11",
"L  c #8BAE13",
"P  c #85AC1C",
"I  c #88AB17",
"U  c #94AD14",
"Y  c #96AE1B",
"T  c #85B412",
"R  c #8BB313",
"E  c #86B916",
"W  c #8CB914",
"Q  c #8CB31A",
"!  c #8DBB19",
"~  c #85B21B",
"^  c #91B414",
"/  c #91B915",
"(  c #91B41A",
")  c #91BA19",
"_  c #92BA1A",
"`  c #9BB31B",
"'  c #A5AD1B",
"]  c #ACB21E",
"[  c #87AA22",
"{  c #8DB523",
"}  c #94B423",
"|  c #94BB22",
" . c #9BB628",
".. c #82A433",
"X. c #9CBC32",
"o. c #99B937",
"O. c #93AE2B",
"+. c #A5B936",
"@. c #AEB425",
"#. c #8B9233",
"$. c #CFAA2B",
"%. c #E5B63A",
"&. c #95C11C",
"*. c #86C11A",
"=. c #9AC330",
"-. c #A1C73B",
";. c #B1C53F",
":. c #BD844D",
">. c #BA8649",
",. c #BE8453",
"<. c #BE8B54",
"1. c #BF955B",
"2. c #AABF4A",
"3. c #8C8D4B",
"4. c #C2884D",
"5. c #C48B49",
"6. c #C38652",
"7. c #C48C54",
"8. c #C98C54",
"9. c #C58D59",
"0. c #C98D59",
"q. c #CD865A",
"w. c #C49253",
"e. c #CA935B",
"r. c #D19256",
"t. c #CDA05D",
"y. c #CD9865",
"u. c #D49C64",
"i. c #D59C6D",
"p. c #D79A74",
"a. c #C98A61",
"s. c #E09E64",
"d. c #DCA46C",
"f. c #D7A566",
"g. c #DAA877",
"h. c #E2AB6C",
"j. c #E2A669",
"k. c #E7B46E",
"l. c #E4AC73",
"z. c #EAAD76",
"x. c #E4A879",
"c. c #E6B375",
"v. c #EAB376",
"b. c #E6B37A",
"n. c #ECB47A",
"m. c #ECB978",
"M. c #F1B57C",
"N. c #9FC149",
"B. c #A9C549",
"V. c #B5C54A",
"C. c #ABC854",
"Z. c #B4CD58",
"A. c #B4CE6A",
"S. c #BCD066",
"D. c #C3C35D",
"F. c #C9C666",
"G. c #D1C96B",
"H. c #C4D96C",
"J. c #D7CB75",
"K. c #C7D579",
"L. c #DBD173",
"P. c #CFCB70",
"I. c #E2D07E",
"U. c #3A4381",
"Y. c #3B4D82",
"T. c #354F82",
"R. c #3C5283",
"E. c #3A5288",
"W. c #424D83",
"Q. c #484C89",
"!. c #445583",
"~. c #455983",
"^. c #495985",
"/. c #45548A",
"(. c #4A5688",
"). c #605F81",
"_. c #55628E",
"`. c #666985",
"'. c #7A758A",
"]. c #6C7594",
"[. c #7978A4",
"{. c #857985",
"}. c #7E8690",
"|. c #7A8CAB",
" X c #9D9596",
".X c #948C8E",
"XX c #AD9A93",
"oX c #B8A498",
"OX c #B5AC94",
"+X c #9498B3",
"@X c #8E96AB",
"#X c #98A6B7",
"$X c #A3AAB4",
"%X c #BFADA3",
"&X c #C5AD95",
"*X c #D3B79A",
"=X c #CCB197",
"-X c #E6AC83",
";X c #EDB583",
":X c #E7B986",
">X c #F4BC8C",
",X c #E8B990",
"<X c #F1BC91",
"1X c #D8BCA4",
"2X c #C9DC87",
"3X c #D7D889",
"4X c #DCC69D",
"5X c #DBD597",
"6X c #E7CA85",
"7X c #F7C88A",
"8X c #E5D187",
"9X c #EEC69A",
"0X c #FDCD9C",
"qX c #F8C897",
"wX c #E5D49A",
"eX c #FDD39B",
"rX c #FFDA9C",
"tX c #F6D295",
"yX c #D2E796",
"uX c #CFC1A6",
"iX c #FDCCA5",
"pX c #ECD9AB",
"aX c #FED5A3",
"sX c #FDDBA4",
"dX c #FED5AB",
"fX c #FEDBAC",
"gX c #F5DAA4",
"hX c #EED0AD",
"jX c #ECE8B2",
"kX c #B7C5C4",
"lX c #C4C5D6",
"zX c #D5E2D9",
"xX c #EEEADE",
"cX c #DDDEE0",
"vX c #EBE6E0",
/* pixels */
"R R R R R R R R R R K N K R R R R R R R R R R R R N R R R R R R D R R R R R R R / ! S F G } K.jX=.R R R L R R R R R R R R R R R ",
"R R R R R R R R R R R R R R R R R R R R R R R R R N R R R R R R R R R R R R R R D R R R D B X.2.! R R R R R R R R R R R R R R R ",
"R R R R R R R R R R R R R R R R R R R R R R R ) R K R R R R R R D R R R R R R R R R ! R R D Z Z R ! R R R R R R R R R R R R R R ",
"R R R R R R R R R R R R R R R R R R R R R R R ) R R R R R R R R R R R R R R R R R R R L R ! T T R ) ! R R R R R R R R R R R R R ",
"R R R R R R R R R R R R R R R R R R R R R R R R R R R R R R R R R R N N R R R R T R D D R Q Q Q R R R R R R R R R R R R R R R R ",
"R R R R R R R R R R R R R R R R R R R R R R R D R R R R R R R R R R R K K R R R W ! S R R R R R R R R R R R R R R R R R R R R R ",
"R R R R R R R R R R R R R R R R R R R R R R R R R R R R R R R R R R R R N N R R R R T T D F D F R R R R R / R R R R R R R R R R ",
"R R R R R R R R R R R R R R R R ) R R R R R R ) R R R R R R R D R R R R R R R D R R R T D R R Q R R R R R ) R R R R R R R R R R ",
"R Q R W T D F Q S S N D ( F L ^ R ) R R R R R ! T D T R D o.C.H T R R R R T R U D T R U R T R T R R R D R R R R R R R R R R R R ",
"F R R N R R F D D -.-.Q G | | j N R R R R R R R F T { R R A.2X( T R R D R R R R U ^ R R R T R R R R R R R R R R R R R R R R R R ",
"R R R L B R ! K D 3XwXH.A ~ R R R R R R R R R N I F D R D ( | J T R / S R / R T T T E E R ) ! R R R R R R R R R R R R R R R R R ",
"T G Q S.o.L R T o.pXwXS.l { U D R R R R R R R N I D F R F D R / R R ) R T R L ^ L T *.W D R W R R R R R R R R R R R R R R R R R ",
"T G  .H.B.R D T N A.yXZ.D N D S R ! R R R R R R R R Q R R { { K R R R R T R U ] $.' W R B R R R R R R R R R R R / / R R R R R R ",
"T R R R B B R Q F K T N B R R T R ) R D R R R R I F D R R G Z F N N R R T T ^ @.%.` T R ^ R R R R R R R R R R R R R R R R R R R ",
"F R R R R R D D A H H ( D ^ C R R R R D R R R R N R R R D R R R R R R R R R R ` ` T E R L L R E R R N N R R R R R R R R R R R R ",
"R Q T T T D F I Q T S ~ R L R T R R R R D R ) ) D R Q _ R R Q R T R R R R R R E W ^ R j h L T T R R N N R R R R R R R R R R R R ",
"W D R R R R R N R N N T ^ D R S D R R R R R R R T T R Q T l R C D S R ! ! T R Q R R R R D R R D ~ R ^ F D T R R W S W W D R R R ",
"/ R R R R R R N K R R R &.W R ( Q T T W D S S S S V k N R ^ ` ' @.` U L D G Z Z S G S R R R T T ^ R W R R L D W W R R R R R R R ",
"D R R R R R R ! } L D W W R R D G D D L L ( +.;.F.F.G.J.8X6X6X7XtX7X6XI.L.G.G.D.V.+.} U B B D R Z F R R R R R R R ) R R R R R R ",
"R R R R R R R R H F R T ) / G Z R  .V.P.8XtX0XqX>X;X-Xx.p.p.p.p.i.i.p.g.g.x.;X>XqX0XtX8XJ.V. .R V D R ! E K L U R W R R R R R R ",
"R R R R R R R R F R R D G B +.F.tXtXqX,Xg.y.e.7.7.6.7.7.7.7.:.s >.>.>.7.7.6.6.8.8.0.y.g.,XqXtXtXG.+.L F D h K R R R R ! ! K R R ",
"R R R R R R R R ~ T S N +.P.gXiXb.i.7.7.7.7.8.8.9.9.9.7.7.:.s >.:.:.,.7.w.7.7.7.8.8.8.5.4.7.i.-XiXtXL.+.L N T T D R R R K R / D ",
"R R R R R R R R D B  .F.gXiXx.8.0.6.7.7.0.7.9.9.9.7.7.8.0.8.s s d s 6.0.0.7.7.8.9.9.7.0.0.7.7.6.w.x.iXaXP.X.V G D R R h h R / D ",
"R R R R R R R R G  .J.fXqXy.4.w.7.7.7.7.7.8.8.8.8.7.w.8.8.9.,.d a >.7.0.7.7.9.9.7.7.8.8.7.8.7.7.0.6.y.<XfXJ. .Z R R R R R R D R ",
"R R R ) R R R D ~ G.aXiXw.<.7.7.7.7.7.7.9.9.9.9.7.9.9.9.9.9.7.:.:.7.7.9.9.9.9.9.7.9.7.7.7.7.7.7.w.5.a.7.9XdXJ.T D R R R R R R R ",
"R R R R N N R D ( tXeX:X7.0.9.8.7.7.0.0.7.9.9.9.7.7.7.:.:.7.7.6.7.7.7.4.:.7.7.7.7.7.7.7.7.7.7.7.8.9.0.6.g.eXdX` D R R R R R R R ",
"R R R R N N R D  .9XdX6X4.q.8.<.7.7.7.7.7.:.:.:.7.0.u.u.f.d.d.d.d.d.d.f.u.u.e.7.:.:.7.7.7.7.7.7.q.e.8.8.g.aX0XX.D R R R R R R R ",
"R R R R R R R F g XXfX0Xy.5.6.1.7.0.7.:.:.e.d.l.c.v.n.n.n.n.n.n.n.n.n.n.n.n.n.c.l.f.e.7.:.7.7.8.9.7.7.9.:XaX*Xb D R R R R R R R ",
"R R D R R ! R D n 6 *XsX0Xt.4.7.7.:.:.u.z.v.v.n.n.n.v.v.c.c.v.v.n.v.c.c.c.n.n.n.n.n.n.z.u.7.:.7.w.4.7.-XrXgX'.v R D R R R R R R ",
"R R R R R R D F z @ t 1XdX0Xl.,.s e.l.v.v.v.n.v.v.v.v.n.n.n.v.c.c.n.n.n.n.c.c.c.c.v.c.v.n.l.e.s ,.y.:XaXdX.X. c W D D R ! R R R ",
"R R R R R R D / #.U.@ 6 oXfXdX:Xu.d.z.n.n.v.c.n.v.v.v.v.c.v.v.n.n.c.c.n.n.n.n.n.c.n.c.c.M.n.d.u.g.eXfXhXf @ @ m / F D R R R R R ",
"R R R R R R D / 3.# # o % .XtXfXeXn.d.l.n.v.c.n.v.v.n.n.v.v.n.n.n.n.n.n.n.n.n.n.n.c.c.n.c.d.v.qXrXaX=Xp : $ . m F F D R R R R R ",
"R D R R R R D J m & % % + W.`.%XrXfX7Xf.g.;Xn.v.n.v.v.c.c.n.n.c.v.n.n.c.v.n.n.n.n.c.c.M.j.c.dXrX4X.X9 $ $ = o 4 &.R R R R D R R ",
"R R R K K R D F m . + = - !.7 w {.4XfX7Xs.v.v.n.c.c.n.n.v.n.n.n.n.n.n.v.v.v.v.n.c.z.M.h.g.0XfXXXt W.!.O # O   , / R R R R R R R ",
"R R R N K R D F 5 * + @ % ~././.T.p 9XrX<Xs.v.b.c.v.v.c.c.c.v.n.v.v.b.n.n.n.c.c.M.n.h.g.0XrXXX9 Y.R.e $ % + & 2 R D R R R R R R ",
"R R R R R R D J , * # # r q !.; R.- '.dXrX>Xx.d.c.c.n.;X;X;Xb.b.m.c.c.v.v.v.c.c.z.d.b.0XsX=X0 - ]._.= % O % & , F R R R R R R R ",
"R R D R R R D / , @ # @ 8 e ~.q (.- ; }.iXrX0X:Xh.j.j.h.z.v.k.k.k.v.c.v.z.z.x.x.b.7X0XsX%X0 |.#XlX+X@Xq & # & 1 R R R R R R R R ",
"R R R R R R R R v @ $ = * r !.(.!.(.r ; ].1XgXsX0X0X>Xn.z.z.l.l.l.l.l.l.z.M.7X7XrXdXhX Xq = ].+X@X#XkX7 @ O . m R R R R R R R R ",
"R D R R R R R D [ < @ = % r !.q ~.q (.w - ~.{.OXwXgXsXrXrXaXaXaXaXaXaXrXsXsXgXpXuX.Xp ; - w +XcXzX$X+X`.+ @ 0 [ F R R R R D R R ",
"R D F _ R R R D H z X & # * ^.q ~.~.e !.!.q R.Q.).'. XXXoX=X*X*X*X*X=X&XoX X'.`.!.- R.~.~.% $XvXxXlX[.r & + c A D R R R R R R R ",
"T Q G T S D R T F F c 6 & # % !.q !.!.!.!.!.!.!.!.R.Y.Y.Y.R.!.q q e E.T.R.Y.= /.!./.!.q !./.^.|.kX}.  . 6 x W Q R R R R R R R R ",
"R D R { B.B L R R R G [ 2 O o % - !./.!.q e ~.!.e e e ~.~.!.!.q /.!.!.e e q r !.!.!.!.r q ^.W.= # . . u b J W K R R R R R R R R ",
"R T X.5XwXX.T R Q G D W J b 1 # & & = q q q !.!.q !.!.!.!.!.!.!.!.q !.^.!.!.^.!.q !.!.^.q W.= @ @ u x F R R Z R R R R R R R R R ",
"R l X.jXwXB.S R R R R R I R ! z 2 > O & U.= q !.!.!.!.~.!.!.~.q ~.^.!.(.!.!.e r !.!.= U.U.# > , z R F R D F R R R R R R R R R R ",
"^ D _ C.C.F B / ~ / F R R F D J G Q ..m 3 6 y o * * * = = 8 8 8 = = 7 % = = * & # 7 6 < v z T R j W D D R D R ~ R R R R R R R R ",
"R / W K T G R R R D R Q R G F R R R / J G Q ..c M 4 1 < 6 6 y 7 O y 0 6 > 3 4 5 c z ~ R R D R R P ! S R | ! R D R R R R R R R R ",
"D ~ W ( L Q Q S F T R T R R D R R D R R R R F F F F R T Q ~ P P P [ I R D ! H.3X-.R G R R R R R R D D R ) R R D R R R R R R R R ",
"R Q D G R D Q ^ _ ! R R G T | T D R R R D D R R R R R R R D F F J ^ D R D Q 3XpX-.R D R R F D R D R Q D G R R R R R R R R R R R ",
"R R R R R R R R R R R R R R / R D D R G R G R Q R R R R R R R R R W R R T R  .=.R R R R R R R R R R R R R R R R Q N h K R R R R ",
"R R R R R R R R R R R R R R R R Q R R D ~ R I R R R R R R R R R ^ T D ^ R R R R R R R R R R R R R R R R R R R R R R N R R R R R ",
"R R R R R R R R R R R R R R R R R S R / I G D D R R R R R R R R T E T R S D R R R R R R R R R R R R R R R R W R R R R R R R R R ",
"R R R R R R R R R R R R R R D R j R ^ B O.R D T R R R R R R R R E R R T T R R T R R R R R R / R R R R R R R W R R R R R R R R R ",
"R R R R R R R R K h K R R R R R P R H  .2XC.D R R R R R R R R R D C C ^ R R R R R R R R D R R R R R R R R R R R R R R R R R R R ",
"R R R R R R R R R N R R R R R R ( B B +.yXC.B R R R R R R R R R W S R R R j j U R R R R R R R R R R R R R R R S R R / / R R R R ",
"R R R R R R R R R R R R R R R R I R R G } D N I R R R R R R R R *.^ L T E R N R R R R R R R R R R R R R R R R R R R / R R R R R ",
"N N K R R R R R R R R R R R R R R R R W T R P G R R R R R R R R Y $.$.( T U D E R R R R R R R R R R R R R R W R R R R R D R R R ",
"K K R / W D R R R R R R R R R R R R R R R R R R R R R R R R D R Y %.%.U K ^ R S ! S R R R R R R F R I R G F W R V R W S S F R R ",
"R R R R W R R R ) ! R R R R R R R R R R R R R R R R R R R R R R Q ' ' R R R T / Q K K R R R R R R R R R R G K o.B.} D R R D D ! ",
"R R D R R R R K R R R R R R R R R R R R R R R R R R R R N K R R T T T T N T T R ~ Q R R D R R R Q F D R R D I N.jXB.B B Q D F D ",
"R R R R R R R h N K R R R R R R R R / ) R R R R R R R K N K R R R T W S j R / T D R R R D R R Q Q D F R R D I o.K.+.D D R R R R ",
"D R R R R R R R R R R R R R R R R R R R R R R R R R R R R R R R D R C R T R ^ T H D R R R D D R D D R R R D R R I D G D R Q Q Q ",
"R ) N N R R R R R R R R R R R R R R R R R R R R R R R R R R R R R ! R ^ W R ^ L D R Q R R F ^ B D R R R R D F G D R T T D D D D ",
"R R N N R R R R R R R R R R R R R R R R R R R R R R R R R R R R T ! W R T T R R R ! | R D B } O.R D R R ) R D D R T T R R G G D ",
"R R R ! R B R D R R R R R R R R R R R R R R R R R R R R R R R R R L R R R R D R _ S W D F I Z.2XX.N D R ( R R ~ R F D Q Q D R [ "
};
