/* XPM */
static char *_0de9dda376641a6bde2e69265c733d7YBri8J6CNV8TzJEv[] = {
/* columns rows colors chars-per-pixel */
"64 64 231 2 ",
"   c #9C590A",
".  c #AC4C11",
"X  c #B54B1D",
"o  c #B94B1B",
"O  c #BD481A",
"+  c #AC5314",
"@  c #AD5D15",
"#  c #AD5E1C",
"$  c #AB561A",
"%  c #B55D15",
"&  c #B4551B",
"*  c #BA541D",
"=  c #B35D1C",
"-  c #BC5E1D",
";  c #B85514",
":  c #A8590A",
">  c #AE610F",
",  c #AE6417",
"<  c #AE611C",
"1  c #A66E1B",
"2  c #BD6016",
"3  c #B4621D",
"4  c #BB621D",
"5  c #B36B1C",
"6  c #BA6C1C",
"7  c #B06017",
"8  c #AB741C",
"9  c #AC7A1D",
"0  c #BA4E24",
"q  c #AE5F21",
"w  c #AA5D29",
"e  c #B35321",
"r  c #BA5321",
"t  c #B35C22",
"y  c #BA5D24",
"u  c #AA6224",
"i  c #AB6A28",
"p  c #B26121",
"a  c #BB6221",
"s  c #B66A25",
"d  c #B67524",
"f  c #B57530",
"g  c #C14C1D",
"h  c #C2551B",
"j  c #C15D1E",
"k  c #C55418",
"l  c #C2641D",
"z  c #C46B1D",
"x  c #C96B1A",
"c  c #D16C1F",
"v  c #CB731D",
"b  c #D0711D",
"n  c #C24D22",
"m  c #C94F20",
"M  c #C45422",
"N  c #C15D20",
"B  c #CB5924",
"V  c #C26320",
"C  c #C66C22",
"Z  c #CC6E24",
"A  c #CD6725",
"S  c #D36D26",
"D  c #CB7124",
"F  c #C77227",
"G  c #D47026",
"H  c #7B9E0E",
"J  c #779E03",
"K  c #6EA600",
"L  c #7DA405",
"P  c #77AB03",
"I  c #7BAC02",
"U  c #7DA60A",
"Y  c #7EAC0C",
"T  c #77A20A",
"R  c #6FB400",
"E  c #75B000",
"W  c #7CB303",
"Q  c #79BA09",
"!  c #7FA413",
"~  c #7AAC14",
"^  c #7EA21A",
"/  c #7DB411",
"(  c #7FBE12",
")  c #7EC30C",
"_  c #7EC90C",
"`  c #7DC712",
"'  c #9C941B",
"]  c #959C1C",
"[  c #9D9B1C",
"{  c #979817",
"}  c #899A13",
"|  c #A28B1B",
" . c #A58619",
".. c #A0931E",
"X. c #A5991F",
"o. c #81A605",
"O. c #83AC02",
"+. c #84A70D",
"@. c #84AC0D",
"#. c #8BAE0C",
"$. c #89AE04",
"%. c #92AD0D",
"&. c #92A50E",
"*. c #86B304",
"=. c #8AB304",
"-. c #85B30C",
";. c #8AB30E",
":. c #82BA0D",
">. c #8CBA0C",
",. c #84BA04",
"<. c #91B30D",
"1. c #93B507",
"2. c #80A611",
"3. c #85AD12",
"4. c #8BAE14",
"5. c #84AC1C",
"6. c #8AAE1A",
"7. c #93AD14",
"8. c #91AB1C",
"9. c #9CA21B",
"0. c #86B413",
"q. c #8BB313",
"w. c #83BB13",
"e. c #8BBA14",
"r. c #86B31B",
"t. c #8CB41A",
"y. c #85BC19",
"u. c #8CBB1B",
"i. c #91B414",
"p. c #91BA16",
"a. c #91B41A",
"s. c #92BA1A",
"d. c #92BB1A",
"f. c #9DB215",
"g. c #AAA81D",
"h. c #9B9922",
"j. c #A48323",
"k. c #A39825",
"l. c #8CA624",
"z. c #97A722",
"x. c #8EB421",
"c. c #8CBC22",
"v. c #8BB525",
"b. c #91B322",
"n. c #94BC23",
"m. c #95B92D",
"M. c #9BBB2D",
"N. c #99B727",
"B. c #8CB130",
"V. c #93BD34",
"C. c #98B839",
"Z. c #A1A922",
"A. c #A2B427",
"S. c #AEBB35",
"D. c #CAAC28",
"F. c #DBBC3F",
"G. c #DBAD3D",
"H. c #F3AD3E",
"J. c #86C30B",
"K. c #85C213",
"L. c #8AC314",
"P. c #88C913",
"I. c #89C119",
"U. c #88C618",
"Y. c #97C21F",
"T. c #94C528",
"R. c #9CC53B",
"E. c #96D03E",
"W. c #A1C53D",
"Q. c #9EBC40",
"!. c #A6BE43",
"~. c #B0BF58",
"^. c #C9B24A",
"/. c #EEA941",
"(. c #FAA84A",
"). c #FAB454",
"_. c #CAB268",
"`. c #CF8854",
"'. c #9FCB4F",
"]. c #A1CB4C",
"[. c #A7C449",
"{. c #B2C04E",
"}. c #A6CC53",
"|. c #A5C756",
" X c #B3CB5E",
".X c #BAC658",
"XX c #ABD05C",
"oX c #B3C86A",
"OX c #BCD16A",
"+X c #B5D96F",
"@X c #AFD172",
"#X c #CEC96E",
"$X c #C6D276",
"%X c #C4CE75",
"&X c #CECA80",
"*X c #C8D78B",
"=X c #D4D284",
"-X c #D6D99C",
";X c #D4CD92",
":X c #E1D69D",
">X c #D2E39D",
",X c #DBD8A5",
"<X c #EBCFA8",
"1X c #E5D9A9",
"2X c #F1D8A9",
"3X c #F2CFB9",
"4X c #EEDBB7",
"5X c #F4D3B4",
"6X c #FBD7BD",
"7X c #F4DCBA",
"8X c #FDDCBD",
"9X c #F9D6B4",
"0X c #D6E9B0",
"qX c #E8E6AC",
"wX c #EDE5B6",
"eX c #F2E3BC",
"rX c #FFDCC3",
"tX c #FFD8CB",
"yX c #FBD3C6",
"uX c #FFDAD5",
"iX c #EFE0C3",
"pX c #FAE3C3",
"aX c #FEE9CE",
"sX c #F9E7C7",
"dX c #EFEDD6",
"fX c #FCE5D6",
"gX c #FEE5DB",
"hX c #F8F7D8",
"jX c #FADDE2",
"kX c #FFE6E4",
"lX c #FAF1F7",
/* pixels */
"q.q.q.q.q.q.q.q.q.t.3.@.#.t.q.q.q.q.q.q.q.q.q.q.q.q.q.q.q.q.q.q.q.q.q.;.q.q.q.q.p.r.r.e.*.6.*XdXT.@.q.q.q.q.q.q.q.q.q.q.q.q.q.q.",
"q.q.q.q.q.q.q.q.q.q.q.t.q.q.q.q.q.q.q.q.q.q.q.q.q.U #.q.q.q.q.q.q.q.q.q.q.q.q.q.;.q.t.q.=.@.C. Xt.3.q.q.q.q.q.q.q.q.q.q.q.q.q.q.",
"q.q.q.q.q.q.q.q.q.q.q.q.q.q.q.q.q.q.q.q.q.q.q.d.q.#.q.q.q.q.q.q.q.q.q.q.q.q.q.q.i.;.q.;.q.>.O.O.t.t.t.q.q.q.q.q.q.q.q.q.q.q.q.q.",
"q.q.q.q.q.q.q.q.q.t.q.q.q.q.t.q.q.q.q.q.q.q.q.d.q.q.q.q.q.q.q.q.;.q.q.#.q.q.q.q.t.;.>.q.4.q.-.-.t.d.d.q.q.q.q.q.q.q.q.q.q.q.q.q.",
"q.q.q.q.q.q.q.q.q.q.q.q.q.t.t.q.q.q.q.q.q.q.q.q.q.q.q.q.q.q.#.q.q.q.@.o.t.q.q.;.0.q.;.q.4.t.r.r.q.q.t.q.q.q.q.q.q.q.q.q.q.q.q.q.",
"q.q.q.q.q.q.q.q.q.q.t.q.t.q.q.q.q.q.q.q.q.q.q.;.q.q.q.q.q.q.q.-.q.q.q.3.@.q.q.;.e.d.#.q.i.i.;.;.q.q.q.q.q.q.q.q.q.q.q.q.q.q.q.q.",
"q.q.q.q.q.q.q.q.q.t.q.q.t.t.t.q.q.q.q.q.q.q.q.q.q.q.q.q.q.p.e.>.q.q.t.t.@.#.q.;.q.p.q.t.q.q.;.<.q.q.q.q.q.d.q.>.q.q.q.q.q.q.q.q.",
"q.q.q.q.q.q.#.q.q.q.q.q.q.q.q.q.d.q.q.q.q.q.q.d.q.q.q.q.q.;.@.q.q.q.t.t.t.t.q.;.q.#.>.q.q.t.q.;.;.q.q.q.q.d.q.q.q.q.q.q.q.q.q.q.",
"q.=.r.>.-.q.t.q.q.I O.q.q.>.q.t.d.q.q.q.q.q.q.d.#.>.4.t.O.S..X0.;.>.;.;.>.>.q.7.0.:.-.6.q.>.t.q.q.q.q.q.q.#.q.q.q.d.d.q.q.q.q.q.",
"6.#.p.;.t.t.d.q.U ].}.O.q.n.c.o.L q.q.q.q.q.t.t.i.q.a.*.E *XqX#.t.q.q.q.q.t.0.0.q.q.i.i.4.0.e.4.q.q.;.;.q.q.q.q.q.q.q.q.q.q.q.q.",
"q.t.$.o.*.>.q.-.r.1X7XoXW >.a.6.#.q.q.q.q.q.t.o.4.>.-.q.3.B.V.>.<.>.I.w.-.q.q.>.:.t.r.-.q.u.e.<.q.q.q.q.q.q.q.q.q.-.q.q.q.q.q.q.",
"0.*.b.*X!.O.$.@.V.4XyX-XI @.a.q.t.q.;.q.q.q.q.o.2.a.-.q.i.=.W U.t.i.n.r.w.U.:.,.@.6.T.w.0.d.q.;.q.q.q.q.;.q.q.q.q.-.q.q.q.q.q.q.",
"0.*.M.>X[.$.q.q.P @X0X}.+.=.4.q.q.q.q.q.q.q.q.q.a.q.q.e.) e.X.9 d 3 4 5 9 | [ S.F.i.-.i.;.-.q.q.t.q.q.q.q.q.q.q.e.e.q.q.q.q.q.q.",
"q.q.;.q.=.;.q.>.>.-.Y I a.i.t.>.q.d.q.q.q.q.q.q.<.;.w.I.] 3 M & - - y M m h - F (.A.W 7.e.-.q.0.3.q.q.q.q.t.q.t.d.d.q.;.q.q.q.q.",
"t.#.q.;.t.t.q.q.q.1.1.q.=.;.q.0.q.d.q.q.q.q.q.q.-.) q.d m k x y 2 2 4 4 a a t $ + k.n.0.-.q.q.0.q.q.L L t.t.t.q.-.q.q.;.q.q.q.q.",
"#.>.r.-.>.q.t.i.t.r.0.e.q.q.;.0.t.3.q.q.;.q.d.d.( b.8 g l D A s a a a a 3 4 V 4 e + [ Q L 7.q.q.q.q.L o.t.q.q.q.q.q.p.d.q.q.q.q.",
"q.;.q.q.q.t.t.@.3.@.@.t.q.t.q.q.q.r.q.>.q.i.;.y.c.6 g x v C G b 4 4 4 4 4 4 4 4 4 # n l.>.@.a.q.q.;.p.p.q.q.;.q.d.#.d.p.>.q.#.q.",
"d.q.#.;.t.q.t.@.3.#.3.t.d.t.q.q.>.t.#.q.0.q.e.w.' % B D v D S D 4 4 4 4 4 4 4 4 = < r 8 q.w.4.q.;.q.d.q.;.q.t.t.d.q.-.q.q.q.q.q.",
";.q.q.q.q.q.q.d.t.t.q.q.d.q.q.q.;.q.q.u.5.Y e.a.5 ; G D C D A D a 4 4 4 4 4 4 4 < 3 @ * h.L.#.q.q.q.q.t.q.t.q.q.q.d.q.q.q.q.q.q.",
"q.q.q.q.t.q.q.d.q.q.q.q.d.q.;.;.q.q.q.u.6.Y 0.{ M A c Z C D S Z 4 4 4 4 4 4 4 4 3 = < 0 5 u.>.;.t.t.q.d.q.o.3.q.q.d.q.q.q.q.q.q.",
"q.q.q.q.q.q.q.q.;.q.q.q.q.q.;.q.3.2.q.e.7.-.0. .n C x c D D v z 4 4 4 4 4 4 a 4 3 & p w * 7.u.;.q.t.q.d.q.L #.t.q.q.q.q.t.q.q.q.",
"q.q.q.q.q.q.q.q.q.q.q.;.q.q.q.p.! 3.>.-.%.>.0.d r 6 b G D D z 2 4 4 4 4 4 4 4 4 % t 3 u & ' y.q.q.q.3.q.q.q.q.t.;.-.q.3.#.q.q.;.",
"q.t.q.q.q.q.q.q.q.q.q.q.q.t.q.q.t.q.>.-.7.e.u.5 N 3 Z Z C z 6 - 4 4 4 4 4 4 4 % # # = = & | ( 3.q.q.q.q.q.q.q.q.;.q.q.U L 4.q.;.",
"q.q.q.q.q.q.q.q.q.q.q.q.q.q.q.q.q.q.q.y.4.K.T.6 h 3 4 4 l - 3 a 4 4 4 a 4 4 4 % u , % < o ..Q H >.;.q.q.q.q.q.q.q.q.t.t.t.q.q.q.",
"q.q.q.d.t.q.q.q.0.7.e.-.>.q.q.q.q.%.d.I.0.>.i.s - a 4 4 4 4 a - a 4 4 4 4 a p = = % @ t & | _ b.q.;.q.q.;.q.q.q.q.q.q.q.q.q.q.q.",
"q.q.q.t.U U q.q.0.i.-.-.q.q.q.q.q.#.q.e.0.>.q.5 - a 4 4 4 4 4 4 a 4 4 4 4 4 = = t < < t & 9.( d.d.q.q.q.q.q.q.q.q.q.q.q.q.q.q.q.",
"q.q.t.q.U o.q.q.y.u.0.q.i.q.q.-.q.q.t.0.0.>.w.8 h N 4 4 4 4 4 4 4 - 4 4 4 = # 3 u < < r , a.w.i.q.q.q.q.q.q.q.q.q.q.q.q.q.q.q.q.",
"q.q.q.t.q.t.q.q.f.i.q.q.q.q.q.q.q.q.t.q.q.q.K. .h N a 3 4 4 4 4 4 4 4 4 3 @ # < < # p o | y.0.;.q.q.q.q.q.q.q.q.q.q.q.q.q.q.q.q.",
";.q.q.q.q.t.q.q.-.-.0.e.q.i.q.q.q.-.3.q.q.q.K.' h j a 3 4 4 4 4 4 4 a 3 = # < < < 3 0 7 i.0.q.t.q.q.q.q.#.#.q.t.q.q.q.p.p.q.;.q.",
"q.q.q.q.t.q.q.q.#.7.-.w.;.q.#.y.q.@.3.>.q.t.K.{ - - a 4 4 4 4 4 4 4 3 = # # < # 3 = O ' K.i.;.q.t.q.q.q.L L q.q.q.q.q.q.q.q.q.q.",
"q.;.q.q.q.q.q.-.G.H.A.w.>.>.%.s.e.4.0.;.q.t.>.4.s - - l 4 3 4 4 4 3 3 # # < = 3 % & 1 0.>.i.0.q.q.q.q.q.q.q.q.q.q.q.q.q.q.q.q.q.",
"q.q.i.q.q.q.q.-.^.).z./ i.;.#.y.u.7.r.;.q.0.>.t.d 3 j V 4 3 3 V 4 3 @ # < < # = & 0 l.P.#.0.r.<.q.t.q.t.q.t.d.q.q.q.q.q.q.q.q.q.",
"t.q.q.t.q.q.q.t.e.-.-.q.q.q.q.q.#.q.;.q.q.q.;.K.| m - 4 a 4 a 3 # = = t t p # & & z.K.<.d.0.q.-.-.7.0.d.q.$.d.e.d.q.q.q.q.q.q.q.",
"q.q.q.#.#.q.t.q.q.;.q.q.q.q.q.@.#.e.i.q.q.q.;.w...h - 4 a 4 3 = u # 3 < < = & o Z.c.w.i.q.#.4.a.q.q.-.>.O.r.-.0.q.q.q.q.q.q.q.q.",
"q.q.q.o.@.q.q.q.;.q.q.q.q.q.q.#.q.d.i.#.0.q.;.w.9.j 4 a p < # @ # p % > @ X < z.P.I.0.q.q.q.q.q.q.r.*.C.$XT.$.i.q.q.q.q.q.q.q.q.",
"q.q.t.q.q.q.q.q.p.q.q.q.q.q.q.q.t.q.q.q.0.q.;.w.8.j - p q @ @ 3 t @ % X e j.t.` -.q.q.>.i.t.q.*.W O.P  XsXM.#.6.q.q.q.q.q.p.p.q.",
"t.q.q.q.q.q.q.q.q.q.q.q.q.q.;.q.q.-.q.q.0.q.q.:.8.- % = q < # 3 < & 0 i z.K.J.;.t.7.>.>.4.H T #.[.,XP c.r.O.q.e.q.q.q.q.q.q.q.q.",
"t.t.q.t.q.q.t.q.q.q.q.q.q.q.q.q.t.q.q.q.0.q.q.:.8.- = # p 3 q = e r j.u.J.-.q.<.e.q.;.>.i.~ ~ M.2X3X$XO.-.q.>.t.q.q.q.q.q.q.q.q.",
"t.t.q.q.q.q.q.t.q.q.q.q.q.q.q.q.q.q.q.q.0.q.q.K.] * @ < p = t = r h.) ,.%.q.q.;.q.q.q.#.q.-./ m.sXaX XO.;.;.i.8.q.q.q.q.q.q.q.q.",
"q.q.q.d.t.q.q.t.t.q.q.q.q.q.q.q.q.q.;.q.u.q.;.L.' * @ < t = = t 7.y.y.q.e.-.;.t.q.q.q.t.d.<.=.q.R.}./ Y } r.q.q.q.q.q.q.q.q.q.q.",
"q.q.i.*.I i.r.q.t.t.o.#.q.q.q.q.r.q.=.>.d.;.-.b.8 ; # u @ = 0 [ K.r.q.d.t.=.>.>.;.q.t.q.d.p.;.q.O.O.q.;.$.q.t.t.q.q.q.q.q.q.q.q.",
"q.0.O.V.].O.u.q.t.t.#.#.q.q.q.q.6.a.>.q.t.w.u.} r : . $ p X  .P.>.-.-.t.t.q.t.q.q.q.t.q.q.q.q.q.q.p.d.q.;.q.q.q.q.q.q.q.q.q.q.q.",
"q.O.V.1X4XR.O.t.t.q.q.q.t.q.q.4.>.q.-.q.t.-.K.&.. t f @ O i t.w.#.>.q.@.q.4.t.q.q.q.q.q.q.q.q.q.q.q.;.q.q.q.q.q.q.q.q.q.q.q.q.q.",
"q.o.'.fX7X|.O.q.q.q.q.q.q.t.q.q.@.2.p.>.#.q.L.e._.9XsX`.  r./ ^ q.p.d.t.q.q.p.e.q.q.;.;.q.t.t.q.q.t.t.t.q.q.q.q.q.q.q.q.q.q.q.q.",
">.r.q.+XXXT q.;.q.d.q.q.q.q.q.q.5.6.p.@.b.r.P T.hXhXkX;X#.J.+.5.Y.e.5.q.4.s.>.>.3.q.q.;.q.6.q.q.L q.q.q.q.q.q.;.q.q.q.p.p.q.q.q.",
";.u.p.I I =.q.;.q.q.q.q.q.q.q.q.q.i.u.q.p.P U =XkXpXyX[.R %.;.e.u.0.2.i.q.#.@.l.x.t.q.;.q.t.t.;.3.q.t.t.d.q.q.q.q.q.q.q.q.q.q.q.",
"q.q.t.%.i.q.q.i.e.q.q.q.q.q.q.q.i.;.-.O.L 3.%XgXtXpX:X-.W b.*.w.-.r.4.i.-.@.OX-XR.3.;.;.t.t.q.>.q.q.#.q.d.q.q.q.q.q.q.q.q.q.q.q.",
";.0.q.r.v.;.r.;.Y.q.q.q.q.q.d.d.-.a.Y n.%X1XaXtXeXuX;X@.*.8.<.7.;.7.i.;.W 5.qXgXW.2.q.q.q.q.q.=.;.q.q.;.;.q.q.q.q.q.q.q.q.q.q.q.",
"q.q.q.q.q.q.q.q.q.q.t.q.q.q.d.q.=.W q.2XlXfX8XwX7XyX:XI -.q.x.7.i.-.>.q.0.6.m.E.;.q.q.q.q.q.q.q.q.q.q.q.q.q.q.q.d.U L q.t.q.q.q.",
"q.q.q.q.q.q.q.q.q.q.q.q.q.;.q.q.t.I ~.fX8X8X7X6X5X5X7X~.O.0.;.=.6.0.q.i.q.q.#.U q.q.q.q.q.q.q.;.q.q.q.q.q.q.q.q.q.3.#.q.q.q.q.q.",
"q.q.q.q.q.q.q.q.t.q.q.q.q.q.q.q.i.P !.gXpXrXtX5X5X7X8X<X8.-.q.>.0.q.i.;.-.-.-.0.q.q.d.p.;.q.d.q.q.q.q.q.;.q.d.q.q.q.q.q.t.;.q.q.",
"q.q.t.q.q.q.q.q.q.q.q.t.q.q.q.q.o.5.=.#XsXeX2X4X6X2X9XaXM.I 6.r.:.>.;.;.-.q.4.t.q.q.d.p.;.q.d.q.q.q.q.q.q.q.d.q.q.q.q.q.q.q.q.q.",
"q.t.q.q.q.q.q.q.#.L @.q.q.q.q.q.3.6.$.x.iX=X5.&XjX6XuX,Xq.*.4.q.4.7.i.q.i.i.q.q.q.q.q.q.q.q.q.q.q.q.q.q.q.q.q.q.t.q.t.q.q.q.q.q.",
"q.t.t.q.q.q.q.q.t.o.q.t.q.;.q.q.q.i.I R.qX[.K i.-X7X1XC.O.<.q.>.p.q.0.q.t.Y U 6.q.q.;.q.q.q.q.q.q.q.q.q.q.;.-.q.q.q.d.d.q.q.q.q.",
"q.t.q.q.q.q.q.q.t.q.q.t.q.q.q.q.a.-.,.4.B.0.! I =.A.#.I >.=.q.t.K.;.;.0.u.t.+.8.q.q.q.q.q.q.q.q.q.q.q.q.q.q.q.q.q.q.d.p.q.q.q.q.",
"@.U q.t.q.q.q.q.q.q.q.q.q.q.q.q.<.e.0.;.$.>.r.6.0.W W r.6.q.q.-.7.D.D.q./ i.<.>.q.q.q.q.q.q.q.q.q.q.q.q.q.q.d.q.q.q.q.;.q.q.q.q.",
"3.@.#.d.p.q.q.t.q.q.t.q.q.q.q.q.q.q.q.q.q.q.q.q.q.q.t.q.q.q.q.q.6.(./.q.-.4.0.=.n.3.q.;.;.q.t.r.t.3.q.q.;.e.p.$.L -.t.r.;.=.;.t.",
"t.t.q.p.q.;.q.d.d.q.q.q.q.q.q.q.q.;.;.q.q.q.q.q.q.q.q.q.q.t.q.q.r.g.g.0.q.i.0.q.q.@.t.q.;.;.;.>.>.;.q.t.>.=.3.C.}.a.$.>.t.q.=.>.",
"t.t.;.q.q.q.t.#.q.q.t.q.q.t.t.q.q.q.q.d.d.q.;.q.q.q.q.#.L #.q.q.q.W :.0.2.;.;.t.;.q.q.q.;.>.e.q.>.=.q.6.q.*.U |.lXoXo.O.r.q.q.r.",
"q.q.q.q.t.q.3.J @.q.q.q.q.q.q.t.q.q.d.d.q.q.q.q.q.q.q.#.L q.p.q.t.-.>.3.@.>.i.6.q.q.;.q.q.q.t.0.r.;.;.q.q.q.@.m.*XQ.#.q.r.>.>.6.",
";.q.q.t.t.t.q.t.q.t.t.q.q.q.q.q.q.q.p.q.;.q.q.q.q.q.q.q.q.q.q.q.q.i.#.q.q.q.q.q.t.4.;.q.t.t.-.>.r.q.;.q.3.q.;.*.O.O.=.q.t.;.;.q.",
"q.d.#.o.q.q.q.t.q.t.q.q.t.q.t.q.q.q.q.q.q.q.q.q.q.q.q.q.t.q.q.q.q.d.y.q.i.4.0.;.q.q.t.t.t.q.*.$.=.>.q.q.q.q.q.=.q.r.r.q.;.q.q.i.",
"q.t.L L q.q.q.;.q.q.t.q.q.q.q.t.q.q.q.q.q.q.q.q.q.q.q.q.t.q.q.;.q.u.y.-.i.q.0.;.-.q.n.q.>.-.N.B.q.-.q.q.d.>.;.t.q.q.q.q.q.t.q.;.",
"q.q.q.q.q.q.q.>.t.q.q.t.q.q.q.t.q.q.q.q.q.q.q.q.q.q.q.t.q.q.q.q.>.#.q.q.q.q.t.r.e.q.r.>.=.+.OX0Xm.3.>.q.n.>.;.r.<.q.q.q.q.t.t.>."
};
