/* XPM */
static char *fc45eb128c5f424dfabcd69b6bf04816fCcz90gqEh3B4SsY[] = {
/* columns rows colors chars-per-pixel */
"64 64 252 2 ",
"   c #030102",
".  c #0A0302",
"X  c #0C0A04",
"o  c #03030A",
"O  c #0C0B0B",
"+  c #080708",
"@  c #120D0B",
"#  c #140704",
"$  c #0E110C",
"%  c #13120C",
"&  c #1A150B",
"*  c #0E0E11",
"=  c #140C13",
"-  c #151414",
";  c #1A1414",
":  c #1B1B1B",
">  c #181817",
",  c #0A1313",
"<  c #250403",
"1  c #231B14",
"2  c #241D1C",
"3  c #281918",
"4  c #2C1912",
"5  c #1D211B",
"6  c #1D250E",
"7  c #23221D",
"8  c #2B231C",
"9  c #29281C",
"0  c #342919",
"q  c #26280C",
"w  c #1B1C22",
"e  c #251B24",
"r  c #381D26",
"t  c #1F2124",
"y  c #242323",
"u  c #2B2523",
"i  c #2B2A25",
"p  c #2C2C2C",
"a  c #252629",
"s  c #342B25",
"d  c #332D2C",
"f  c #392A26",
"g  c #3B332C",
"h  c #35332B",
"j  c #2B2B33",
"k  c #332D32",
"l  c #2D3134",
"z  c #333334",
"x  c #3A3532",
"c  c #3C3A35",
"v  c #333439",
"b  c #3C3B3C",
"n  c #383738",
"m  c #2F302B",
"M  c #4C1C1B",
"N  c #462D1B",
"B  c #42352C",
"V  c #443B35",
"C  c #433D3B",
"Z  c #463635",
"A  c #543737",
"S  c #502622",
"D  c #5C2E2B",
"F  c #3C4128",
"G  c #4F4E13",
"H  c #687116",
"J  c #44423C",
"K  c #4B433C",
"L  c #484538",
"P  c #55473C",
"I  c #5A592F",
"U  c #6B7628",
"Y  c #6F7233",
"T  c #606218",
"R  c #3C3C42",
"E  c #433E42",
"W  c #3E4245",
"Q  c #444343",
"!  c #4B4644",
"~  c #4C4B44",
"^  c #44444A",
"/  c #4B4A4C",
"(  c #464847",
")  c #534C45",
"_  c #524D4B",
"`  c #594B46",
"'  c #54524C",
"]  c #59534A",
"[  c #4C4D53",
"{  c #534E52",
"}  c #545353",
"|  c #5B5553",
" . c #5A595A",
".. c #4F5054",
"X. c #665649",
"o. c #655B58",
"O. c #634B4B",
"+. c #63615B",
"@. c #6A645C",
"#. c #77675D",
"$. c #6D714A",
"%. c #5C5B61",
"&. c #625E65",
"*. c #675F74",
"=. c #636263",
"-. c #6B6B6C",
";. c #6A6766",
":. c #756B67",
">. c #79726C",
",. c #6B6C74",
"<. c #747474",
"1. c #76757A",
"2. c #7C7977",
"3. c #706F73",
"4. c #5F6163",
"5. c #846E3D",
"6. c #857C76",
"7. c #8A7568",
"8. c #9B7568",
"9. c #768C17",
"0. c #7EA909",
"q. c #7EAE12",
"w. c #798827",
"e. c #7E8331",
"r. c #7C855F",
"t. c #869719",
"y. c #8D8F0D",
"u. c #84AB0D",
"i. c #8CAE0C",
"p. c #82AA06",
"a. c #92AC0B",
"s. c #8AB306",
"d. c #85B30D",
"f. c #8BB30D",
"g. c #8CB90D",
"h. c #86B505",
"j. c #91B30A",
"k. c #86AE12",
"l. c #8BAE13",
"z. c #88A918",
"x. c #93AD17",
"c. c #85B413",
"v. c #8BB313",
"b. c #8DBA14",
"n. c #8CB31A",
"m. c #88B619",
"M. c #92B413",
"N. c #91B916",
"B. c #92B41B",
"V. c #92BA1A",
"C. c #9BB419",
"Z. c #ABAD1C",
"A. c #859827",
"S. c #8F972C",
"D. c #8DA725",
"F. c #95B824",
"G. c #9ABA38",
"H. c #92AE24",
"J. c #B2B32C",
"K. c #DDAE35",
"L. c #8EC118",
"P. c #9CC328",
"I. c #89934B",
"U. c #92A54E",
"Y. c #87827A",
"T. c #938977",
"R. c #A9B676",
"E. c #A08A75",
"W. c #D7AD46",
"Q. c #A9C54F",
"!. c #B7CF67",
"~. c #C3DF70",
"^. c #7C7B82",
"/. c #817F80",
"(. c #8C8B8C",
"). c #868687",
"_. c #958C87",
"`. c #95918D",
"'. c #8A8B93",
"]. c #979798",
"[. c #8D8F8C",
"{. c #A69589",
"}. c #B29E93",
"|. c #AA9B8F",
" X c #A8A399",
".X c #B5A699",
"XX c #B9AC91",
"oX c #9C9CA3",
"OX c #ABABAC",
"+X c #A5A4A6",
"@X c #B3ACA7",
"#X c #B9B4AC",
"$X c #ABACB5",
"%X c #BBBCBD",
"&X c #B7B7B5",
"*X c #ADB0AF",
"=X c #A19EA7",
"-X c #C7B49E",
";X c #C6B8A9",
":X c #D2BCA8",
">X c #C7BDB3",
",X c #C9B5AA",
"<X c #C79688",
"1X c #BEC1AB",
"2X c #CED686",
"3X c #EBD596",
"4X c #D8C3AD",
"5X c #C9C3BA",
"6X c #D2C3B5",
"7X c #D5CABC",
"8X c #DCCDBC",
"9X c #D7C7B7",
"0X c #D2CBB7",
"qX c #E2CDB9",
"wX c #E6D3BD",
"eX c #E4D5AA",
"rX c #EDE5B4",
"tX c #D3E790",
"yX c #BDBDC3",
"uX c #CCBFC1",
"iX c #BEC1C4",
"pX c #C3C4C4",
"aX c #C8C8C8",
"sX c #D6CEC4",
"dX c #DDD3C4",
"fX c #DAD5CB",
"gX c #CACDD2",
"hX c #D8D8D7",
"jX c #CED3D5",
"kX c #E3D4C4",
"lX c #E4DACB",
"zX c #EADCCB",
"xX c #E7D8C7",
"cX c #E5DDD3",
"vX c #EADDD2",
"bX c #E1DAD7",
"nX c #F1DECB",
"mX c #ECE3CE",
"MX c #F5E2CD",
"NX c #ECE2D4",
"BX c #E5E3DB",
"VX c #EBE4DC",
"CX c #E9E6DA",
"ZX c #F3E6D7",
"AX c #F3F2DC",
"SX c #EAE8E6",
"DX c #F4ECE5",
"FX c #F8F2E7",
"GX c #EAEDF1",
"HX c #FBF8F8",
"JX c #EEEDF4",
"KX c #DEDFE4",
/* pixels */
"v.v.v.v.v.v.v.v.f.v.k.u.k.v.v.v.d.f.v.v.f.f.f.f.v.k.v.v.v.v.v.v.f.v.v.v.v.v.v.v.V.v.d.g.s.H.2XrXP.v.v.v.v.v.v.v.v.v.v.v.v.v.v.v.",
"v.v.v.v.v.v.v.v.f.v.v.v.v.v.v.f.v.v.v.v.v.v.v.n.v.u.v.v.v.v.v.v.v.v.v.v.v.v.v.v.f.v.c.c.f.u.G.Q.n.v.v.v.v.v.v.v.v.v.v.v.v.v.v.v.",
"v.v.v.v.v.v.v.v.v.v.v.v.v.v.v.v.v.v.v.v.v.b.d.b.v.v.v.v.v.v.v.v.f.v.v.v.v.v.v.v.f.v.n.v.v.f.h.f.v.n.v.v.v.v.v.v.v.v.v.v.v.v.v.v.",
"v.v.v.v.v.v.v.v.v.v.v.v.v.v.v.v.f.f.v.v.v.v.v.V.v.v.v.v.v.v.v.v.v.v.v.v.v.v.v.v.v.k.v.v.v.n.v.d.v.V.v.v.v.v.v.v.v.v.v.v.v.v.v.v.",
"v.v.v.v.v.v.v.v.v.v.v.v.v.v.v.v.m.v.d.v.v.k.v.v.v.v.v.v.v.v.v.v.v.v.u.u.v.v.v.v.v.v.f.f.v.n.n.n.v.v.v.v.v.v.v.v.v.v.v.v.v.v.v.v.",
"v.v.v.v.v.v.v.v.v.v.v.v.v.v.v.v.v.f.f.v.v.v.v.s.v.v.v.v.v.v.v.v.v.v.v.k.k.v.v.v.b.b.d.v.N.v.v.v.v.v.v.v.v.v.v.v.v.v.v.v.v.v.v.v.",
"v.v.v.v.v.v.v.v.v.v.v.v.v.v.v.v.B.l.M.f.k.k.v.f.v.v.v.v.v.v.v.v.v.v.v.v.u.u.v.v.v.b.c.v.v.f.f.f.v.v.v.v.v.N.v.v.v.v.v.v.v.v.v.v.",
"v.v.v.v.v.v.v.v.v.v.v.v.f.v.v.v.$.U D.v.s.b.v.V.v.v.v.v.v.v.v.f.v.v.v.v.v.v.v.f.v.v.v.v.d.v.v.n.v.v.v.v.v.V.v.v.v.v.v.v.v.v.v.v.",
"v.n.v.v.v.f.g.n.d.f.c.i.v.v.a.Y R E N z.v.f.v.V.n.f.k.B.f.G.Q.f.v.v.v.v.v.c.v.x.v.c.v.x.v.c.f.f.v.v.v.v.v.v.v.v.v.v.v.v.v.v.v.v.",
"g.v.v.i.N.v.f.f.i.Q.G.n.d.V.V.I W / l G v.i.v.v.f.v.n.v.s.!.2XB.c.v.v.f.v.v.v.v.i.M.v.v.v.v.v.l.v.v.v.v.v.v.v.v.v.v.v.v.v.v.v.v.",
"v.v.v.v.f.f.n.k.f.2X3X!.c.g.i.' p : w k e.M.k.0.n.b.v.k.v.F.F.M.c.v.N.d.v.N.v.c.c.v.m.c.v.V.V.v.v.v.v.v.v.v.v.v.v.v.v.v.v.v.v.v.",
"v.s.n.!.G.k.f.v.G.rX3X!.0.v.S.v i , 7 p g D.v.z.k.f.f.f.f.f.f.N.v.v.V.v.c.v.k.v.x.c.L.b.v.v.m.v.v.v.v.v.v.f.v.v.v.v.v.v.v.v.v.v.",
"v.s.F.~.Q.v.f.v.u.!.tXQ.v.d.U : i y - % : G v.m.v.k.v.v.u.n.B.n.v.v.v.v.c.v.x.Z.K.Z.c.v.f.f.f.v.v.v.v.v.v.v.v.v.N.N.v.v.v.v.v.v.",
"v.v.v.n.f.i.v.n.v.i.c.h.M.n.$.y t 2 > - O > w.s.n.v.v.v.v.f.h.v.u.u.v.v.c.c.M.J.K.C.c.v.v.v.f.f.v.v.v.v.v.v.v.v.v.v.v.v.v.v.v.v.",
"g.v.v.v.N.v.f.f.h.s.M.M.k.x.) 2 + ; & O = , q D.v.f.f.v.g.g.v.f.v.v.v.v.v.v.v.C.C.c.m.v.k.v.v.c.v.v.p.p.v.v.v.v.v.v.v.v.v.v.v.v.",
"v.n.v.v.k.f.g.n.n.v.c.f.n.D.( - . X @ = o > 5 0 u.v.n.F.M.v.n.v.c.v.v.v.v.v.v.m.b.j.v.0.u.l.v.c.v.v.p.u.v.v.v.v.v.v.v.v.v.v.v.v.",
"b.f.v.v.v.v.v.u.v.u.m.f.B.I.@.y + . +     O 7 X G D.f.f.m.n.v.M.q.v.v.b.M.v.v.v.g.v.v.v.v.f.f.v.k.V.M.a.v.c.v.b.N.v.V.V.v.v.v.v.",
"N.v.v.v.v.v.v.u.k.k.c.b.B.Y / y O       O O @ 8 Z X.Y t.N.h.a.Z.J.x.c.v.N.v.d.v.d.v.m.n.d.h.v.n.M.u.A.A.z.l.l.v.N.v.v.v.v.v.v.b.",
"f.v.v.v.v.v.v.n.M.f.f.v.N.w.p > - O : > O c | K o.` Z B Y A.S.W.W.H.m.v.v.f.N.f.v.v.c.v.f.V.z.9.G 6 X 1 9 F S.M.v.V.n.v.v.v.v.v.",
"v.v.v.v.v.v.v.v.M.s.n.u.V.S.h 9 2 C ~ u V Y.7.g 4 1 1 0 V K @.#.5.Y I.A.A.t.t.H.v.f.M.i.t.G 4 + +   @ ; * . H j.v.v.v.v.v.v.v.v.",
"v.v.v.v.v.v.v.v.c.n.k.F.A.) K ] ` 6.] g T.7.f B P K Q J ) ' } o.+.` P h h 8 1 f I U H Y & o   % & + ; @ + . T n.v.v.v.v.v.v.v.v.",
"v.v.v.v.v.v.v.v.m.v.s.z.~ x | :.6.o.B 7.-X8.#.:.] ! g C L c <.1.J ` P B f 8 3 .   O .     @ @ @ X + O * o # y.f.v.v.v.v.k.v.v.v.",
"v.v.v.v.v.v.v.v.b.l.a.Y ! ! L K o.h s }.,XE.#.c 1 e n g g R '. .8 X.:.6.#.B 8 %           X X X o O . o   3 S.c.v.v.v.0.0.v.v.v.",
"v.v.v.v.v.v.v.v.v.l.I d V ) J C J : J .XE.X.8 a 7 - } ! g Q OXo.a s A X.:.6.] 9 & X X       + O O   .     0 a.s.v.v.v.v.v.v.v.v.",
"f.v.k.N.v.m.d.n.a.Y d i / ^ ) K _ h x {.-X#.8 8 K c K ;.J J aX;.m i X   m ].2.) x 2 X +   .   . X $   O , G u.M.v.v.v.v.v.v.v.v.",
"v.v.n.b.0.m.f.f.e.g j c b /.`.| ;.6.f ` >X{.X.~ c c o.| ~ b ].| p i @ d >.2._ o.Q d $               X : w T n.v.v.v.v.v.v.v.v.v.",
"v.v.n.f.0.k.f.x.P e e i x (.&X2.:.:.| s #.>.P ' c h | C Q ( ).o.n x c _ @.g | o./ p % ; 2 X         & s > T v.n.v.v.v.v.v.v.v.v.",
"v.v.v.d.v.v.M.S.@.z : : ^ ). X`._. .~ B f 0 . . @ x _ ~ z c ]. .k p i i h V @.2./ : O s g 1     O @ & e - 5.f.n.v.v.v.v.v.v.v.v.",
"v.v.v.d.V.f.x.Y ' ] c J  .2.Y.6.r.:.| c V < A ! u @ C c u >.%X( p   + m ~ V g J u > O u B V 2   X s g ; q t.f.f.v.v.v.v.v.v.v.v.",
"v.v.f.f.m.f.l.I a ^ | | 2.6.~ ! J J } Q ] Z f 3 f 3 ~ _ | @XbXx x y $ >   # %     * O ; 0 ` J O # g C ; G t.h.f.v.v.v.v.v.v.v.v.",
"c.f.v.v.v.v.V.w.d k ! :.].:.J Q Z ~ +.) x s & f f ` >._..X;XvX@Xo.' m % s ;   $ : p l p s L o.8 3 7 > & t.n.b.g.v.v.v.v.v.v.v.v.",
"v.f.n.n.f.v.v.M.] 8 i +.:._ E c o.6.' ~ x @.@.) T.6XFXdX6.P B ` :.`.;.% u 3 2 b x / ..a % P |.o.k 1 + q M.c.m.g.v.v.v.v.v.v.v.v.",
"v.f.v.v.c.f.v.M.$.L ] x z b n R } { | _ <._.:.@XHXHXDXQ . % O + * E +X6.+ - p k R ^ / y 2 (.@X#.u 9 w G s.d.V.N.V.v.v.v.v.v.v.v.",
"v.v.f.k.z.n.H.I.L V :._ 7 J ~ J Q _ ! / ! o.@XHXHXfX)   . > y a 2   C DX`.  > p v W [ b <.2.h V s 9 k G H.d.v.v.v.v.v.v.v.v.v.v.",
"v.v.f.k.v.k.R.].2.d 2 :.| ) ~ c +.;.o._ h :.VXHXFX:.      % > >       (.HX).> z ^ ^ R a <.-.%   2 9 > 0 !.V.c.v.v.v.v.v.v.v.v.v.",
"n.f.v.v.g.f.aXjX@X>.s _ 6._ b E +.| o.;.o._.VXcXsX>.u ; y : O > +     y hXHX .l ..R / z Q ( O   + : ; 1 $.F.d.v.v.v.v.v.v.v.v.v.",
"v.v.f.v.n.G.BXGXSX#X:.K @.J } { J K ) ;.6..XFXcX&X6.c 2 y * O - > O   p yXHX'.j ,.R v R y : - : - % 8 e 0 9.N.v.v.v.v.v.v.v.v.v.",
"f.v.v.f.B.XXJXGXGXbX_.K ~ '  .+._ V ) 2.2._.vXVX#X(._ > +   O O O > y &.aXKX].v ^.=.: : i u y z z : 2 3 f 9.v.f.v.v.v.v.v.v.v.v.",
"f.v.m.f.v.aXJXBXSXDXsX;.C Q K '  .>.:.' J >.bXBX+X).} z : . O O O > / 1.$X$X'.} 4.%.t O > i y u y 5 : 1 2 A.i.v.v.v.v.v.v.v.v.v.",
"n.f.c.L.B.5XFXAXCXBXcX Xc n Q i +.(.~ - h Y.cXbX+X-.{ v p y > : p / -.'.$X&X^.a j W > . : i 7 O 2 5 > 1 1 9.v.f.v.v.v.v.v.v.v.v.",
"c.v.n.c.H.hXJXGXSXSXfXdXT.3 p v ` =.> = .  .fXsX(.,...p a j j i c | 3.].oX+X-.b v R : + > y y - - > - O @ H v.f.v.v.v.v.v.v.v.v.",
"v.i.i.V.Q.1XHXCXSXSXcXcXdX>.X a ' ) 2 & 1 g 6.;X6. .=. .' / [ z z } 1.oX+XoXR } Q t : : y a > > * ; > : 3 U v.v.v.v.v.v.v.v.v.v.",
"v.d.F.3X3XR.GXDXCXBXNXNXDXlX+.7 ( ] ` 8 d Z B XX|.V u O.A f _ =.} %.'.$XgX1.b l l > O > : : - O y y : : u U v.v.v.v.v.v.v.v.v.v.",
"v.d.G.rXeXR.GXFXCXCXCXVXNXZX7X6.C J K ] ) 2 f 7.XX X. M S < # d ! Q (.aX$X/ b p : a + > : y p p p k 7 w d w.v.v.v.v.v.v.v.v.v.v.",
"v.k.F.Q.Q.R.JXCXNXVXDXcXlXdXZXZX#X>.x >.{.A f . 8.HX; < D M 4 4 # :.+X,.^ v [ l w u - > y p ( } %. .c p V t.v.v.v.v.v.v.v.v.v.v.",
"v.N.N.d.f.U.SXGXDXVXNXdXdXzXNXAXFXvX>X X,X8.S 4 8.uXo.4 S M 4 < 7.DXo.O > v l w p p : > u y p Q / E m p K t.f.v.v.v.v.v.v.v.v.v.",
"v.b.v.l.x.H.0XHXFXDXbXlXzXZXzXNXmXnXFXAXnX<XD Z A 3 o.@.f r A A ,X}.. - R ^ l w > : * + > * O > y y m z C z.f.v.v.v.v.v.v.v.v.v.",
"v.v.v.f.n.x.1XJXSXDXVXmXlXzXzXvXvXMXMXmXmXqX}.V % : d 7 p ^ ^ ( f # ;  .,.v O   O   *   +     O > k +. .` a.f.v.v.v.v.v.v.v.v.v.",
"f.v.n.f.n.v.U.GXBXcXDXNXzX8XkXxXkXMXMXzXnXxXcX6.Z d : w - y w =   1 o.;.b o w > *   > > + + - u b z ..6.$.f.n.v.n.u.0.k.v.v.v.v.",
"f.f.n.v.v.v.U.hXVXCXNXlXZXzXxXwXxXnXMXMXMXwXlX>X:.} b a > > : d : _ 6.u a ,.-.^ n z [  .^ b n v  .).,.:.Y s.n.v.v.v.u.v.v.v.v.v.",
"v.f.n.v.f.v.U.aXVXSXNXdXxXzXxX8XxXZXxXxXnX8X8XlX&X X<.b b v / } ,.'.2.-.+X$XoX(.(.).].].1.;.=.^ /  .1.o.Y M.c.b.v.v.v.v.v.v.v.v.",
"v.n.n.f.v.f.D.&XDXCXcXlX8X8XqXwXzX8X9XwXwXwXwX9XfX&X).^.'.,.^.].&X%X(.(.OX+X$X+X%X%X&X*XoX'.).3./ b ..! T N.F.v.v.v.v.v.v.v.v.v.",
"v.v.v.f.v.v.D.#XhXhXcXlX8XxXwXxXzX4XwXqXqXMX9X:X>X;X@XOX$XoX+XyX&X*XOX[.].&X&X*XyXpXiXiX%X*X*X+X;.z / ~ H v.c.v.v.v.v.v.v.v.v.v.",
"f.s.f.v.v.v.D.+XaXbXCXfXdXZXzXkXqX4XqX:X4XMX9XqX4X-X>X#X@XpXOXOX>X[.*X&X+X%X%X&X%XjXaX%XpXaXiXOX1.b v C 9.f.v.v.v.v.N.N.v.v.v.v.",
"v.f.v.n.v.v.D.(.aXBXNXcXNXvXlXlX:XXX:X4X4XkXxXwXqX:X:X;X.XsX#XT. X XaXgXpXaX%XiXaXpXaXiX*XjXgX^.c b a c t.v.c.v.v.v.N.v.v.v.v.v.",
"z.z.k.v.c.M.M.).5XfXfXcXNXlXvXlX:X}.qXwX8XqX9X:X:X9X6X>X_.}.4XXX@XsXjXgXjXyXyXjXgXjXpX$XoXoX).R a p v Q 9.c.b.v.v.v.v.v.f.v.v.v.",
"n.p.d.V.v.s.z.'.@XsXcXvXlXNXNXlX-X4XMXxXxX;X.X6X8X;X6X7X}..X6X;XsXsXaXpXuX&X+XoX(.).<.} v u > e i J *.] U v.b.d.s.f.b.v.v.l.v.b.",
"v.f.n.V.n.f.e.1.`.5XBXNXsXdXNXcXxXwXxXzXkX.X.XzX8X;X6X7X:X,X9X7XaX%X&X#X5XaX].;.;. .^ v v z d z / %.| / U s.v.G.Q.H.f.f.v.v.v.d.",
"v.v.v.v.k.n.[.+XpXSXSXfX7XlXzXlXlXzXlXdX8XkXzX8XkXkXzXdX;X.X9XsX5X5X#X&X5X1X+X).3.;.-.=.=. .| | ..~ ! ! I B.p.Q.rXQ.s.h.v.v.f.v.",
"v.v.v.v.f.H.Y.OXgXhXhX5X5XNXmXxXlXzXdXdXlXlXkX6XdXdX6XdXkX;X;XsX7X7X5X>X>X%X*X*XY.=.=.=.-.;.&.=. . .&.} m H v.H.2XG.f.h.v.f.f.N.",
"v.V.v.v.v.v.Y.=X*X+X%XfXfXdXkXlXvXdXdXlXdXdXkX8XlX5X5XlXlX6X>XsX7XdXsX@X#X5X%X5XY.2.2.=.=.3.^.).<.-.*./ j l 9.g.k.c.c.v.v.v.v.c.",
"f.V.z.u.n.j.>.^.OX%X%XsXfXfXzXNXlXlXlXdXlXlX8X8XlXsX6X7XlXdX6X;X6X8X6X;X>X5X5X X6.(.`.<.-.1.^.1.3.,.<.;.R w q x.h.h.c.n.i.f.v.c.",
"f.v.q.0.B.A.@.=.^.+X&XsXBXfX5XsX8X>XdXzXNXxXdXlXlX7X6X8XdXdXdX9X8X6X7XsX#X.X>X X X].`.2.-.-.3.1.).).).-.v w 5 U v.v.f.v.v.f.v.v.",
"n.f.v.g.k.$.=.6.%./ ;.].#X&X;XlXzXxXNXzXZXzXdX7XdX6X:XxX7XdX;X9XlX7X7X#X#X{.Y. X].`.).2.<.1.1.<.).].].%.z : % j 9.x.g.f.n.v.f.v."
};
