/* XPM */
static char *f6f2571d368d4975d7c4c6fdb50fe45cWgPbq6OyjbKUen6I[] = {
/* columns rows colors chars-per-pixel */
"64 64 248 2 ",
"   c #09010C",
".  c #160C0B",
"X  c #0C0112",
"o  c #1B1013",
"O  c #24181F",
"+  c #2C2C15",
"@  c #303211",
"#  c #070220",
"$  c #301E25",
"%  c #36252C",
"&  c #4A3339",
"*  c #56303B",
"=  c #672F3C",
"-  c #42491A",
";  c #495616",
":  c #505B16",
">  c #627D16",
",  c #57651F",
"<  c #5B3847",
"1  c #6F3A4C",
"2  c #5E4153",
"3  c #78485A",
"4  c #77545F",
"5  c #6C4E56",
"6  c #795863",
"7  c #905869",
"8  c #976774",
"9  c #8F6974",
"0  c #AD7078",
"q  c #934D58",
"w  c #C57D79",
"e  c #799215",
"r  c #7EA908",
"t  c #7DB507",
"y  c #7BA614",
"u  c #7FB513",
"i  c #7F9820",
"p  c #82AD05",
"a  c #84AC0D",
"s  c #8AAE0D",
"d  c #88AC06",
"f  c #91AF0D",
"g  c #95AA07",
"h  c #84B303",
"j  c #8BB405",
"k  c #84BB04",
"l  c #8BB803",
"z  c #86B40C",
"x  c #8BB30D",
"c  c #84B90D",
"v  c #8BB90C",
"b  c #91B40D",
"n  c #92B90A",
"m  c #86AD12",
"M  c #8BAE13",
"N  c #8BAD1A",
"B  c #84A719",
"V  c #91AE13",
"C  c #95AE1D",
"Z  c #9CAD19",
"A  c #86B312",
"S  c #8BB313",
"D  c #83B912",
"F  c #8CBA14",
"G  c #87B41B",
"H  c #8CB31A",
"J  c #8CBA1B",
"K  c #86B819",
"L  c #92B414",
"P  c #91B915",
"I  c #92B41A",
"U  c #92BA1A",
"Y  c #98B412",
"T  c #A6AC1C",
"R  c #839623",
"E  c #AC9D3E",
"W  c #98AC26",
"Q  c #8CB724",
"!  c #93B423",
"~  c #93BA24",
"^  c #99B92A",
"/  c #96AB38",
"(  c #9BBC32",
")  c #99B937",
"_  c #8AAB2A",
"`  c #A4B83B",
"'  c #AEB32C",
"]  c #D4AB36",
"[  c #95C112",
"{  c #8CC116",
"}  c #9AC22B",
"|  c #9BC23A",
" . c #A2C53E",
".. c #AC9354",
"X. c #9FB344",
"o. c #A7A945",
"O. c #A8B947",
"+. c #B1B84E",
"@. c #A8A755",
"#. c #ACB956",
"$. c #B6B158",
"%. c #9E8068",
"&. c #B99474",
"*. c #B5B664",
"=. c #BAB173",
"-. c #979447",
";. c #C59F6A",
":. c #C5896E",
">. c #C9A578",
",. c #CAB570",
"<. c #E1AA4A",
"1. c #9FC149",
"2. c #A8C54A",
"3. c #A9C656",
"4. c #B3C85A",
"5. c #B8CE6A",
"6. c #BCD066",
"7. c #BEC275",
"8. c #C8D67B",
"9. c #C5DD6F",
"0. c #9A7181",
"q. c #AA7C8B",
"w. c #A87788",
"e. c #B77C93",
"r. c #B37488",
"t. c #DC789A",
"y. c #D3748C",
"u. c #E56D97",
"i. c #E4739C",
"p. c #E57C9C",
"a. c #E57796",
"s. c #F07A9B",
"d. c #C67FA7",
"f. c #E77AA6",
"g. c #F677A0",
"h. c #9E838C",
"j. c #B78896",
"k. c #B98E97",
"l. c #BBA083",
"z. c #B98FA3",
"x. c #C5879C",
"c. c #D5889C",
"v. c #CF9491",
"b. c #E5879C",
"n. c #E28996",
"m. c #C9B687",
"M. c #D6B998",
"N. c #D1B190",
"B. c #E3BA9E",
"V. c #DA8AA4",
"C. c #C998A8",
"Z. c #D995A9",
"A. c #DB9DB3",
"S. c #CD93AB",
"D. c #EA8DAC",
"F. c #E887A6",
"G. c #F589AD",
"H. c #E593AD",
"J. c #E798AB",
"K. c #EB8CB1",
"L. c #F287B4",
"P. c #EB95B3",
"I. c #EB9BB3",
"U. c #E899B6",
"Y. c #F49BB7",
"T. c #F497AE",
"R. c #DEBAA9",
"E. c #CCA1B1",
"W. c #D9A6B8",
"Q. c #DCACAA",
"!. c #E6A3AC",
"~. c #ECA4BB",
"^. c #E4AABC",
"/. c #EBABBD",
"(. c #E6A6B6",
"). c #F4A4BE",
"_. c #FDA4BD",
"`. c #F2AABE",
"'. c #E7B8B9",
"]. c #F4B9B3",
"[. c #BFCC84",
"{. c #C8C483",
"}. c #CDDD89",
"|. c #CAC398",
" X c #D7C89A",
".X c #D8D496",
"XX c #E6D59A",
"oX c #D1E496",
"OX c #D7C5A7",
"+X c #DAD7AC",
"@X c #E5C9B8",
"#X c #E9CDAC",
"$X c #DDE8AB",
"%X c #EAE9B2",
"&X c #F19CC7",
"*X c #DFB6C6",
"=X c #ECA5C3",
"-X c #E4ABC2",
";X c #ECACC2",
":X c #F3A5C2",
">X c #F3ABC4",
",X c #FCACC5",
"<X c #F4ABCB",
"1X c #FDADCB",
"2X c #F9A6C7",
"3X c #ECB3C5",
"4X c #EDB5CC",
"5X c #EDBBCC",
"6X c #E6B7C7",
"7X c #F2B3C6",
"8X c #F9B2C3",
"9X c #F5B5CA",
"0X c #FCB4CB",
"qX c #F4BACC",
"wX c #FBBBCD",
"eX c #F6BAC6",
"rX c #EBB7D1",
"tX c #F6B5D2",
"yX c #FDB5D2",
"uX c #F4BDD2",
"iX c #FCBDD2",
"pX c #FEBEDB",
"aX c #F8BADA",
"sX c #FCB4E2",
"dX c #DFCBC4",
"fX c #EDC6CA",
"gX c #FBC3CE",
"hX c #F5C4CC",
"jX c #EDC5D5",
"kX c #F4C3D3",
"lX c #FCC2D4",
"zX c #F4CBD6",
"xX c #FACBD6",
"cX c #FDC3DA",
"vX c #FCCBDB",
"bX c #F5C7DA",
"nX c #EBD6D6",
"mX c #F7D1D9",
"MX c #EDD8C9",
"NX c #E7EAD7",
"BX c #E8E7C9",
"VX c #FEC3E3",
"CX c #FBC9E4",
"ZX c #FDD4E4",
"AX c #FCD9E7",
"SX c #FFDAF0",
"DX c #EDE9E6",
"FX c #F9EDED",
/* pixels */
"S S S S S S S S S S m a m S S S S S S S S S S S S a S S S S S S x S S S S S S S I H z v j ! 8.%X} S S S S S S S S S S S S S S S ",
"S S S S S S S S S S S S S S S S S S S S S S S S S a S S S S S S S S S S S S S S x S S S x s ( O.H S S S S S S S S S S S S S S S ",
"S S S S S S S S S S S S S S S S S S S S S S S P S m S S S S S S x S S S S S S S S S H S S x j j S H S S S S S S S S S S S S S S ",
"S S S S S S S S S S S S S S S S S S S S S S S P S S S S S S S S S S S S S S S S S S S M S H A S S P H S S S S S S S S S S S S S ",
"S S S S S S S S S S S S S S S S S S S S S S S S S S S S S S S S S S m a S S S S A S x x S G G H S S S S S S S S S S S S S S S S ",
"S S S S S S S S S S S S S S S S S S S S S S S x S S S S S S S S S S S m m S S S F F z S S S S S S S S S S S S S S S S S S S S S ",
"S S S S S S S S S S S S S S S S S S S S S S S S S S S S S S S S S S S S a a S S S S A A x x x x S S S S S P S S S S S S S S S S ",
"S S S S S S S S S S S S S S S S P S S S S S S P S S S S S S S x S S S S S S S x S S S A x S S H S S S S S P S S S S S S S S S S ",
"S H S F A x v H z z a x I x M L H S S x S S A F S S G S s ) 2.S A x ! V S G x L v S H S x z S S S S S x S S S S S S S S S S S S ",
"v S S a S S x x x  .| H j ~ ~ r B H S S S S S S x S H j L 5.}.! b x G A A A z I N S x x L V N S S S S S S S S S S S S S S S S S ",
"S S S M s S H m x .XXX9.k H S S h v z A A x S m N z h x s I ^ S f n v L j j j S x S F z z F F x S S S S S S S S S S S S S S S S ",
"A j H 6.) M S A ) #XXX6.t Q V x x S A G S A A m s I S A S z A ~ G G F S x G A G j c { P S F F N S S S S S S S S S S S S S S S S ",
"A j ~ 9.2.S x A a 5.oX4.x a x z f M L S x S M S j S S S x S S S I m F S j A s T <.Z c S C H S H S S S S S S S S P P S S S S S S ",
"A S S S s s S H x m A a x S S A Q ~ S p p S A A G z z G x j h z r B x N j z b ' <.T z A M x z x S S S S S S S S S S S S S S S S ",
"v S S S S S x x l b b I x Y f S u v h I ( ( } ^ ) ( ( ~ s L ^ ( ) Q h ) } Q p S I h v S M L v S S S p a S S S S S S S S S S S S ",
"S H A A A x v N H A z G S M S A G j W .XFXnXnXDXNXNXFXBX,.m.fXzXAX+X#.NXFXBX{.{.5.^ S y y M L S S S p a S S S S S S S S S S S S ",
"F x S S S S S a S p s x G z S L S x ( DXAXxXkX5X4X5XbXAX4XiXiXlXvXvXlXvXAXAXkXcXCXOX+.x z A L x A j I S F z H H F z F F x S S S ",
"P S S S S S S a m B S l J F x s b t | mXpXqX5X(.^.-X-X^.^.7XiXqX5XuXqX6X*XkXkXiXcXvXkXOX4.x h S h x U J z v x L F S S S S x S S ",
"x S S S S S S H F S S S ~ S A L N Q ` (.2X5XmX5X;X;X~.;XlXiXiXiXqXiXiX9X6XbXcXiXhXgXVXCXOX2.2.=.7.M.^ c S S S b S P S S S S S S ",
"S S S S S S S S x S G S U A G S h [.@XtXwXxXmXvXcX9X;X7XiXiXiXiXqXiXiXiX9XuXuXiXkXuXkXzXnXDXFXCXaXqXO.z S B A H S F S S S S S S ",
"S S S S S S S S S S S A S h j ! +.fXVXaXhXhXwX9XiXuXxXqX9XiXwX3X7X9XiXiX3XqXiXiXlXkXzXmXfXnXSXiXpXwX|.U s B t x S S S H H m S S ",
"S S S S S S S S S x z x d W ` *.;X9X8XwXiXiX9X=X;XuXZX6X7X7X>X^.(./.9XqXW.4XlXiXpXlXkXcXaXxXZXaXuXzX|.A H A v S x S S S m S I x ",
"S S S S S S S S S A A ~ W m.'.'.lXuX4XwX0XyX0X>X;XuXvXkXlXqXqXqX~.;X5XfX6X5XuXlXiXeXeXlXiXuXlXCXfXbX{.M j j S S x S S r r S I x ",
"S S S S S S S S x x Q $XMX6X0XyXgXxXuXkXkXkX3XqXiXlXwXcXlXkXlXiX0XqXkXAXZX5X-XiXpX5X3XyXaXlXwXkXVXqXmX{.x S S x S S S S S S x S ",
"S S S U S S S S A j G +XSX5XqXlXlXiXwXiXcXkXzXlX0XtXpXwX@X0XiXgXlXwXlXwXvXmX4X5XeX7XqXuXlXkXiXiXtX].VX@X! j S x S S S S S S S S ",
"S S S S a a S S G S ^ @XcXvXuXiXiX7XwXlXwX^.^.H.F.H.4XtXH.K.2XuXlXlX:XY.qXFX3XP.(.9X0X;XiXcXwX`.5XVXCXOX( h S A S S S S S S S S ",
"x S S S a a S S Y v U @XvXcXlXuX9XqXqXlX9X7X~.p.D.=XvX9XU.p.I.&X).:X).U.9XkX7XI.wX0XiXiXiXiX0X8XmXCXfX` z z S A S S S S S S S S ",
"S S S S S S S S v k ! fXZXuXwXqXqXlXlXqXwXwX0X).tXcXlXgX7Xb.w 0 V.D.,XW.9XwX,X`.7X/.7XwX9XiXwX3X>.(.3XO.j v N v S S S S S S S S ",
"S S S S S S S S u ) m.6XCXcXwXqXlXlXlXlXlXkX5XvXqXwX3XiXiX1Xv.-./.,X,Xk.iXiXI.:XwX9X;X;X>X0XwX7X>.`.lXOXN N H j S S S S S S S S ",
"S S S S S S S x g ,.iX9XxXvXiXgXlXlXwXlXzXkXzXjXgXeX:XiXcXP.a.&.k.wXj.7 H.:X>XP.8X>X,X0X,XI.8XwXpXwXuXhX/ y J z S S S S S S S S ",
"S S S S S S S x ' ].iXkXhXlXiXiXvXqXwX9XmXlX^.7 S.lXyX`.H.L.g.q 9 ,X& 0 1XpX~.J.~.>X0X0XI.V.0XwXpXiXwXZX|.S F x S S S S S S S S ",
"S S S S S S S x ,.VXeXpXiXkXkXlXlXlXlXW.q.qX).V.^.aX0XH.u.u.s.< q i.% W.iXwX/.V.^.9X9X,X:XH.wXqXwXqX8XlXhX3.x Y S S S S S S S S ",
"S S S S S S S S O.hXwXwX<X3XlXiXwXiXiXqX8 e.U.;XcX0X0XF.f.a.s.= 4 x.5 iXwXwX^.r.L.6XwXc.4 :XU.U.P.J.9XpXiXM.P F P S S S S S S S ",
"S S S a m S S S *.'.bXcX8XqXxXhX;X;X0XF.I.0X,XY.iX4Xl.n.D.A.F.y.% 6 q.qXwX`.C.(.Y.<X;X7 x.2XH.K.^.U.wXaXcXkXO.t S S S S S S S S ",
"S S S a m S S S M.9XVXuXlXxXwXiXkXP.Y.H.0XvXE.Z.tXkX@...:XU.t.s.7 & C.iX:XZ.S.0X2X,Xj.3 G.F.F.J.yXyXrXOXjX+.S S S S S S S S S S ",
"S S S S S S S S #.m.fXVXiXqXiXyXc.V.Y.I.wXiXq.h.VXlX>.X.=Xa.i.u.f.1 9 _.Y.x.;X9XI.V.< C.:.:.f.t.`.0XB.4.+X~ x z S S S S S S S S ",
"S S S S S S S S D G ` #XcXuX=X(.y.1 0 ,XP.P.c.q.cXkXQ./ Z.a.i.p.F.r.9 P.V.S.qX,XT.1 @ $.A B w ..m.7XiX@X X! M S S S S S S S S S ",
"S S S S S S S S M z h ,.<XU.F.T.).c.* < y.G.2X(.j.4X0X@.!.~.p.H.2XH.0.A.9 9XqX0Xr.. i n z B w *.XX@XsXpX@XQ G L S S S S S S S S ",
"S S S S S S S S N z O.I.K.n.G.P.(.P.I.8 5 4 Z.0Xk.S.2Xv.'.aX_./.lXA.C.W.C.iX5X;Xq.&.Z h x b o.o.%XMX/.].#.x j x S S S S S S S S ",
"S S S P S S S S A h *.P.f.b.Y.Y.D.`.).Y.I.w.4 q.,XW.~.=X^.tX8X~.,XC.W.:XwX6XC.Z.2XN.S G J L D S ^ 3.M.'._ A H j S S S S S S S S ",
"S G j A h x S A H S o.F.:X>XI.~.F.J.P.p.u.f.J.j.j.j.A.rXA.V.!.`.:Xz.C.iX5Xw.Z.,XpXN.C F F v S S A t N.tXo.k I A S S S S S S S S ",
"S x S Q 2.s M S x h / V.U.H.b.F.f.f.u.t.a.F.~.,X<X-X(.-X^.<XqXpXiXe.k.hXq.x.D.(. X$.V z S L S x d ' Q.N.Y j S S S S S S S S S S ",
"S A ^ .XXX( A S x b o.c.H.Z.F.F.c.u.i.t.J./.D.T.8XqX0XpXxXC.C.iXwX8 6 j.%.=.E W W N x S M L S c ` R.N.#.Q m x x S S S S S S S S ",
"S u ( %XXX2.c S z S Q o.$.v.D.K.@.a.i.t.H./.V.D.Y.>X0XwXgXZ.0.E.1X& O O R A { k h h x S N I S z C O.S h S x A s S S S S S S S S ",
"L x U 3.2.S s I S U k j S o.;.;.W &.g.f.=Xt.i.a.F.Y.<X3X>X&X1Xr.3 2 X @ x v U A j x A S S S S S y A c J L z z I S S S S S S S S ",
"S I F m A j S S S I x V z M A D D =.F.f.b.a.t.b.J.F.8X&.@.;.R.j.. % o e Y b x B N S G A S x x H A S S L U F A S S S S S S S S S ",
"x G F C M H H z H S z I D G A z h *.rX!.$.N.L.=X'.Z.Z.o.k t H R .   @ P F r 5..X .S S S S S x N z L L S S S H v S S S S S S S S ",
"S S x j S x G L [ S x L x ! J v x ) R.M.) m.&XqX#.$.&.W z S z N + # ; P x G $XXX| p S S S x j H x x A c S S l N S S S S S S S S ",
"S S S S S S S S S S S S S S P S S H Q v S O.=.=.^ S S j S G S I +   : n A H ^ } S S S S S S S S S S S S S S S S H a r m S S S S ",
"S S S S S S S S S S S S S S S S z H N v S S M n H S A j S G S S +   : [ A M S S S S S S S S S S S S S S S S S S S S a S S S S S ",
"S S S S S S S S S S S S S S S S S S S x z j S S S S P x S G L S + X ; n S S S S S S S S S S S S S S S S S S F S S S S S S S S S ",
"A S S S S S S S S S S S S S x S m S S z H x S H S S S x A S b B o X ; n S I S S S S S S S S P S S S S S S S F S S S S S S S S S ",
"S S S S S S S S m r m S S S S S r H M ^ }.2.h j S S S z S S P e . X - P S S M S S S S S x S S S S S S S S S S S S S S S S S S S ",
"S S S S S S S S S a S S x S S S S N H ` oX4.S N S S S x S S P e . X - U S m a A S S S S S S S S S S S S S S S z S S P P S S S S ",
"S S S S S S S S S S S S S S S S L x S x ~ p a M S S S x S x L >     - U x N a S S S S S S S S S S S S S S S S S S S P S S S S S ",
"a a m S S S S S S S S S S S S S S S S j M S A G S S S x S x U > o O : P z H S z S S S S S S S S S S S S S S F S S S S S x S S S ",
"m m S P F x S S S S S S S S S S S S S S S S S S S S S A S S S S W ] ] C S S A x F z S S S S S S x S M S z x F S p S F z z x S S ",
"S S S S F S S S P H S S S S S S S S S S S S S S S S S S S S S S H T T S A S x S G m m S S S S S S S S S S j m ) 2.! x S S x x H ",
"S S x S S S S m S S S S S S S S S S S S S S S S S S S a a m S S S z F z p I S S H G S S x S S S G x x S S x m 1.$X2.s x H x v x ",
"S S S S S S S r a m S S S S S S S S P P S S S S S S S a p m S S f z F x p S S A x S S S x S S G H x x S A x m ) 8.` x x S S S A ",
"x S S S S S S S S S S S S S S S S S S S S S S S S S S S S S S S L S S L A S L S b x S S S x x S x x S S S x S S M x j x S H G G ",
"S P a p S S S S S S S S S S S S S S S S S S S S S S S S S S S S K J S S A S L S x S H S S v L s x S S S S x x j x S A A x x x x ",
"S S p p S S S S S S S S S S S S S S S S S S S S S S S S S S S S A J S A A S L S S H ~ S x s ! W S x S S P S x x S A S S S j j x ",
"S S S H S S S x S S S S S S S S S S S S S S S S S S S S S S S S b x x S S S S S U z F x x N 4.}.( a x S I S S H S x x H H x S Q "
};
